<svg width="16" height="18" viewBox="0 0 16 18" fill="none" xmlns="http://www.w3.org/2000/svg">
<path d="M15.9549 16.8838L14.6422 4.83009C14.6203 4.63603 14.4453 4.48509 14.2484 4.48509H11.8199V3.75195C11.8199 1.68191 10.1134 0 8.0131 0C5.9128 0 4.2063 1.68191 4.2063 3.75195V4.48509H1.71219C1.51529 4.48509 1.34026 4.63603 1.31838 4.83009L0.00569116 16.8838C-0.016187 16.9916 0.0275693 17.0994 0.0932038 17.1856C0.158838 17.2719 0.268229 17.315 0.37762 17.315H15.583C15.6923 17.315 15.8017 17.2719 15.8674 17.1856C15.933 17.0994 15.9768 16.9916 15.9549 16.8838ZM11.4261 6.66294C11.623 6.66294 11.7761 6.81388 11.7761 7.00795C11.7761 7.20201 11.623 7.35295 11.4261 7.35295C11.2292 7.35295 11.076 7.20201 11.076 7.00795C11.076 6.81388 11.2292 6.66294 11.4261 6.66294ZM4.99392 3.75195C4.99392 2.11317 6.35036 0.776265 8.0131 0.776265C9.67584 0.776265 11.0323 2.11317 11.0323 3.75195V4.48509H4.99392V3.75195ZM4.60011 6.66294C4.79701 6.66294 4.95016 6.81388 4.95016 7.00795C4.95016 7.20201 4.79701 7.35295 4.60011 7.35295C4.4032 7.35295 4.25006 7.20201 4.25006 7.00795C4.25006 6.81388 4.4032 6.66294 4.60011 6.66294ZM0.837062 16.5172L2.06224 5.23979H4.2063V5.95136C3.76874 6.1023 3.46244 6.512 3.46244 6.98638C3.46244 7.59014 3.96564 8.08609 4.57823 8.08609C5.19082 8.08609 5.69402 7.59014 5.69402 6.98638C5.69402 6.512 5.38772 6.1023 4.95016 5.95136V5.23979H10.9885V5.95136C10.551 6.1023 10.2447 6.512 10.2447 6.98638C10.2447 7.59014 10.7479 8.08609 11.3605 8.08609C11.9731 8.08609 12.4763 7.59014 12.4763 6.98638C12.4763 6.512 12.17 6.1023 11.7324 5.95136V5.23979H13.964L15.1891 16.5172H0.837062Z" fill="#777070"/>
</svg>
