<?xml version="1.0" encoding="utf-8"?>
<!-- Generator: Adobe Illustrator 22.1.0, SVG Export Plug-In . SVG Version: 6.00 Build 0)  -->
<svg version="1.1" id="Layer_1" xmlns="http://www.w3.org/2000/svg" xmlns:xlink="http://www.w3.org/1999/xlink" x="0px" y="0px"
	 viewBox="0 0 988 394.1" style="enable-background:new 0 0 988 394.1;" xml:space="preserve">
<style type="text/css">
	.st0{fill:#E1B2B3;fill-opacity:0;}
	.st1{fill:#DDDDDD;}
	.st2{fill:#010202;}
	.st3{fill:#1D1D1B;}
	.st4{opacity:0.56;fill:#FFFFFF;enable-background:new    ;}
	.st5{fill:none;stroke:#000000;stroke-miterlimit:10;}
	.st6{clip-path:url(#SVGID_2_);fill:none;stroke:#000000;stroke-miterlimit:10;}
	.st7{clip-path:url(#SVGID_4_);fill:none;stroke:#000000;stroke-miterlimit:10;}
	.st8{fill:none;stroke:#231F20;stroke-miterlimit:10;}
	.st9{clip-path:url(#SVGID_6_);fill:none;stroke:#231F20;stroke-miterlimit:10;}
	.st10{clip-path:url(#SVGID_8_);fill:none;stroke:#231F20;stroke-miterlimit:10;}
	.st11{fill:#B6B6B6;}
	.st12{fill:#FFFFFF;}
	.st13{fill:#022484;stroke:#FFFFFF;stroke-width:0.5;stroke-miterlimit:10;}
	.st14{fill:#022484;stroke:#FFFFFF;stroke-width:0.7;stroke-miterlimit:10;}
	.st15{fill:#022484;stroke:#FFFFFF;stroke-miterlimit:10;}
	.st16{fill:#EAEAEA;}
	.st17{fill:#FFFFFF;stroke:#FFFFFF;stroke-miterlimit:10;}
	.st18{font-family:'Verdana';}
	.st19{font-size:8px;}
	.st20{fill:#00A551;}
	.st21{fill:#EC1651;}
	.st22{fill:#FFCA05;}
	.st23{fill:#F48120;}
	.st24{fill:#F8A98E;}
	.st25{fill:#2E3191;}
	.st26{fill:#C5579F;}
</style>
<circle cx="591.5" cy="103.5" r="12.1"/>
<g id="Layer_1_1_">
</g>
<g id="Layer_2_1_">
	<g>
		<rect x="84.8" y="57.5" class="st0" width="29.1" height="29.1"/>
		<g>
			<g>
				<rect x="88.8" y="66.2" width="18.9" height="1.2"/>
			</g>
			<g>
				<rect x="88.8" y="71.5" width="14.5" height="1.2"/>
			</g>
			<g>
				<rect x="88.8" y="76.8" width="21.1" height="1.2"/>
			</g>
		</g>
	</g>
	<g>
		<rect x="13.6" y="168.2" class="st0" width="36.9" height="36.9"/>
		<g>
			<g>
				<path d="M42.2,200H21.6c-1.7,0-3.3-1.5-3.3-3.3v-0.1l2.4-12.8c0.4-2,1.7-3.1,3.2-3.1h15.7c1.7,0,2.9,1.3,3.2,3.1l2.4,13
					C45.5,198.6,44,200,42.2,200z M19.9,196.8c0,0.9,0.8,1.7,1.7,1.7h20.6c1,0,1.7-0.8,1.7-1.7l-2.4-12.7c-0.2-0.9-0.7-1.8-1.7-1.8
					H24.1c-1.2,0-1.5,1.2-1.7,1.8L19.9,196.8z"/>
			</g>
			<g>
				<path d="M26.2,184.9c-0.4,0-0.8-0.3-0.8-0.7c0-0.2-0.3-5.8,2.4-8.7c1-1,2.4-1.7,4-1.7c1.7,0,3,0.6,4.1,1.7
					c2.7,2.9,2.3,8.4,2.3,8.5c0,0.4-0.4,0.8-0.8,0.7c-0.4,0-0.8-0.4-0.7-0.8c0-0.1,0.3-5-2-7.4c-0.8-0.9-1.7-1.3-3-1.3
					c-1.2,0-2.2,0.4-2.8,1.2c-2.2,2.3-2,7.5-2,7.5C27,184.5,26.7,184.9,26.2,184.9L26.2,184.9z"/>
			</g>
		</g>
	</g>
	<g>
		<rect x="111.7" y="8" class="st0" width="21.4" height="21.4"/>
		<g>
			<g>
				<path d="M120.2,22.9c-3.2,0-5.7-2.7-5.7-5.7c0-3.2,2.7-5.7,5.7-5.7c3.2,0,5.7,2.7,5.7,5.7S123.4,22.9,120.2,22.9z M120.2,12.2
					c-2.7,0-4.8,2.2-4.8,4.8s2.2,4.8,4.8,4.8s4.8-2.2,4.8-4.8C125.1,14.4,122.8,12.2,120.2,12.2z"/>
			</g>
			<g>
				<path d="M129.6,26.7c-0.1,0-0.2,0-0.3-0.1l-5.5-5.5c-0.1-0.1-0.1-0.2-0.1-0.3c0-0.1,0-0.2,0.1-0.3c0.2-0.2,0.5-0.2,0.6,0
					l5.5,5.5c0.1,0.1,0.1,0.2,0.1,0.3c0,0.1,0,0.2-0.1,0.3C129.8,26.7,129.7,26.7,129.6,26.7z"/>
			</g>
		</g>
	</g>
	<g>
		<rect x="60.3" y="168.2" class="st0" width="36.9" height="36.9"/>
		<g>
			<g>
				<path d="M74.8,193.8c-5.4,0-9.9-4.5-9.9-9.9s4.5-9.9,9.9-9.9s9.9,4.5,9.9,9.9C84.8,189.3,80.4,193.8,74.8,193.8z M74.8,175.4
					c-4.7,0-8.5,3.8-8.5,8.5s3.8,8.5,8.5,8.5s8.5-3.8,8.5-8.5S79.5,175.4,74.8,175.4z"/>
			</g>
			<g>
				<path d="M91.2,200.5c-0.2,0-0.4-0.1-0.6-0.2l-9.6-9.6c-0.2-0.2-0.2-0.4-0.2-0.6c0-0.2,0.1-0.4,0.2-0.6c0.3-0.3,0.8-0.3,1,0
					l9.6,9.6c0.2,0.2,0.2,0.4,0.2,0.6c0,0.2-0.1,0.4-0.2,0.6C91.5,200.3,91.3,200.5,91.2,200.5z"/>
			</g>
		</g>
	</g>
	<g>
		<rect x="419.5" y="107.1" class="st0" width="31.1" height="31.1"/>
		<g>
			<path d="M435.1,133.2l-0.4-0.3c-0.5-0.3-11-7.9-11-14.7c0-3.6,2.5-5.3,4.8-5.8s5.2,0.2,6.6,2.2c1.3-2,4-2.7,6.2-2.2
				c2.4,0.4,5.2,2.2,5.2,6.1c0,6.8-10.6,14.2-11,14.5L435.1,133.2z M429.9,113.6c-0.4,0-0.8,0-1.2,0.1c-2.3,0.5-3.8,2.2-3.8,4.5
				c0,5.4,8.2,11.9,10.1,13.4c1.8-1.3,10.1-7.7,10.1-13.1c0-3-2.2-4.5-4.2-4.8c-2-0.4-4.5,0.4-5.3,2.5l-0.6,1.5l-0.7-1.5
				C433.9,114.3,431.8,113.6,429.9,113.6z"/>
		</g>
	</g>
	<g>
		<rect x="456.4" y="107.1" class="st0" width="31.1" height="31.1"/>
		<path d="M478.3,112.5c-2.2-0.4-4.8,0.3-6.2,2.2c-1.5-2-4.4-2.7-6.6-2.2c-2.3,0.5-4.8,2.2-4.8,5.8c0,6.8,10.6,14.4,11,14.7l0.4,0.3
			l0.4-0.3c0.5-0.3,11-7.7,11-14.5C483.5,114.8,480.7,113,478.3,112.5z"/>
	</g>
	<g>
		<rect x="225" y="57.5" class="st0" width="29.1" height="29.1"/>
		<g>
			<g>
				<path d="M241.4,75.2c-0.2,0-0.4,0.1-0.5,0.3V79c0.1,0.2,0.3,0.3,0.5,0.3c0.3,0,0.5-0.3,0.5-0.8v-2.7
					C241.7,75.5,241.7,75.2,241.4,75.2z"/>
			</g>
			<g>
				<path d="M245.2,75.2c-0.4,0-0.5,0.3-0.5,0.8v0.6h1V76C245.7,75.5,245.6,75.2,245.2,75.2z"/>
			</g>
			<g>
				<path d="M248.1,72.8c-0.1-0.7-0.3-1.3-0.7-1.7c-0.5-0.5-1-0.8-1.7-0.8c-2.4-0.2-6.1-0.2-6.1-0.2l0,0c0,0-3.7,0-6.1,0.2
					c-0.7,0-1.3,0.3-1.7,0.8s-0.6,1.2-0.7,1.7c-0.1,1-0.2,2-0.2,2.8V77c0,1,0.1,2,0.2,2.8c0.1,0.7,0.3,1.3,0.7,1.7
					c0.6,0.5,1.3,0.8,2,0.8c1.3,0.1,5.9,0.2,5.9,0.2s3.7,0,6.1-0.2c0.7,0,1.3-0.3,1.7-0.8s0.6-1,0.7-1.7c0.1-1,0.2-2,0.2-2.8v-1.3
					C248.2,74.8,248.2,73.8,248.1,72.8z M234.7,80.2L234.7,80.2h-1.2v-6.8h-1.3v-1.2h3.7v1.2h-1.3L234.7,80.2
					C234.6,80.2,234.7,80.2,234.7,80.2z M238.9,80.2L238.9,80.2h-1v-0.7c-0.3,0.4-0.7,0.7-1.3,0.8c-0.3,0-0.6-0.2-0.7-0.5
					c-0.1-0.3-0.1-0.6-0.1-0.9v-4.7h1v4.4c0,0.1,0,0.3,0,0.4c0,0.2,0.1,0.3,0.3,0.3s0.4-0.2,0.7-0.5v-4.5h1v5.9L238.9,80.2
					L238.9,80.2z M242.7,79.7c-0.1,0.4-0.5,0.7-0.9,0.7c-0.5,0-0.9-0.3-1-0.7v0.6h-1v-8h1V75c0.3-0.4,0.7-0.6,1-0.7
					c0.4,0,0.8,0.3,0.9,0.7c0.1,0.4,0.1,0.8,0.1,1.2v2.3l0,0C242.9,78.9,242.9,79.3,242.7,79.7z M246.8,77.4h-2.2v1
					c0,0.6,0.2,0.8,0.6,0.8c0.3,0,0.5-0.2,0.5-0.4s0-0.5,0-0.8h1v0.2c0,0.4,0,0.6,0,0.7c0,0.2-0.1,0.5-0.3,0.7
					c-0.3,0.4-0.8,0.7-1.3,0.7s-1-0.2-1.3-0.6s-0.4-0.9-0.4-1.3v-2c0-0.5,0.1-1,0.3-1.3c0.3-0.4,0.8-0.6,1.3-0.6s1,0.2,1.3,0.6
					c0.3,0.3,0.4,0.9,0.3,1.3L246.8,77.4L246.8,77.4z"/>
			</g>
			<g>
				<path d="M235.5,66.3v3.3h1.2v-3.3l1.5-4.8H237l-0.8,3.2l-0.9-3.2H234c0.3,0.8,0.5,1.5,0.8,2.2C235,64.6,235.4,65.5,235.5,66.3z"
					/>
			</g>
			<g>
				<path d="M238,65.6v2.2c0,0.5,0.1,1,0.3,1.5c0.3,0.4,0.8,0.7,1.3,0.6c0.5,0,1-0.2,1.3-0.6s0.4-0.9,0.3-1.5v-2.2
					c0-0.5-0.1-1-0.3-1.5c-0.6-0.7-1.5-0.8-2.2-0.3c-0.1,0.1-0.2,0.2-0.3,0.3C238,64.6,237.9,65.1,238,65.6z M239,65.4
					c0-0.6,0.2-0.9,0.5-0.9c0.4,0,0.5,0.3,0.5,0.9v2.5c0,0.6-0.2,0.9-0.5,0.9c-0.4,0-0.5-0.3-0.5-0.9V65.4z"/>
			</g>
			<g>
				<path d="M242.7,69.7c0.5-0.1,1-0.3,1.3-0.8v0.7h1v-6h-1v4.7c-0.2,0.3-0.5,0.5-0.7,0.5c-0.1,0-0.2-0.1-0.3-0.3c0-0.1,0-0.3,0-0.4
					v-4.5h-1v4.8c0,0.3,0,0.6,0.1,0.9C242.2,69.5,242.4,69.8,242.7,69.7z"/>
			</g>
		</g>
	</g>
	<g>
		<rect x="189.9" y="57.5" class="st0" width="29.1" height="29.1"/>
		<g>
			<path d="M215,65.6c-0.8,0.4-1.7,0.6-2.5,0.7c0.9-0.6,1.5-1.3,2-2.3c-0.9,0.5-1.7,0.9-2.7,1c-1.7-1.7-4.4-1.8-6.1-0.2
				c-1.2,1-1.5,2.7-1.3,4.1c-3.5-0.2-6.7-1.8-8.9-4.5c-1.2,2-0.6,4.5,1.3,5.7c-0.7,0-1.3-0.2-2-0.6v0.1c0,2,1.5,3.8,3.5,4.2
				c-0.4,0.1-0.8,0.2-1.2,0.2c-0.3,0-0.6,0-0.8-0.1c0.6,1.7,2.2,2.9,4.1,3c-1.5,1.2-3.4,1.8-5.3,1.8c-0.4,0-0.7,0-1-0.1
				c2,1.3,4.3,2,6.6,2c6.7,0,12.2-5.3,12.2-12c0-0.1,0-0.1,0-0.2v-0.6C213.7,67.2,214.4,66.5,215,65.6"/>
		</g>
	</g>
	<g>
		<rect x="260" y="57.5" class="st0" width="29.1" height="29.1"/>
		<g>
			<g>
				<path d="M281.8,64h-1.7c-0.5,0-0.8,0.4-0.8,0.8v1.7c0,0.5,0.4,0.8,0.8,0.8h1.7c0.5,0,0.8-0.4,0.8-0.8v-1.7
					C282.6,64.3,282.3,64,281.8,64z"/>
			</g>
			<g>
				<path d="M274.6,69L274.6,69L274.6,69c-0.6,0-1.2,0.2-1.5,0.5c0.2,0,0.3-0.1,0.5-0.1c0.9,0,1.5,0.7,1.5,1.5
					c0,0.9-0.7,1.5-1.5,1.5s-1.5-0.7-1.5-1.5l0,0c0-0.2,0-0.3,0.1-0.5c-0.3,0.5-0.5,1-0.5,1.5c0,1.7,1.3,3.1,3.1,3.1
					s3.1-1.3,3.1-3.1C277.7,70.3,276.3,69,274.6,69z"/>
			</g>
			<g>
				<path d="M281.2,61.6h-13.1c-2.2,0-4,1.7-4,4v13.1c0,2.2,1.7,4,4,4h13.1c2.2,0,4-1.7,4-4V65.5C285.1,63.3,283.3,61.6,281.2,61.6z
					 M279.3,72.8c0,0.1,0,0.2-0.1,0.4c0,0.2-0.1,0.4-0.2,0.6c0,0.1-0.1,0.2-0.1,0.3c-0.1,0.2-0.2,0.4-0.3,0.6
					c-0.1,0.1-0.1,0.2-0.1,0.2c-0.1,0.2-0.3,0.3-0.4,0.5c-0.1,0.1-0.1,0.2-0.2,0.2c-0.2,0.2-0.3,0.3-0.5,0.4
					c-0.1,0.1-0.2,0.1-0.3,0.2c-0.2,0.1-0.4,0.2-0.6,0.3c-0.1,0-0.2,0.1-0.2,0.1c-0.2,0.1-0.5,0.2-0.7,0.2c-0.1,0-0.2,0-0.2,0.1
					c-0.3,0-0.5,0.1-0.8,0.1c-0.1,0-0.1,0-0.2,0c-0.3,0-0.6,0-0.8-0.1c-0.1,0-0.1,0-0.2,0c-0.3-0.1-0.5-0.1-0.8-0.2
					c-0.1,0-0.1,0-0.2-0.1c-0.2-0.1-0.4-0.2-0.7-0.4c-0.1,0-0.1-0.1-0.2-0.1c-0.2-0.1-0.3-0.3-0.5-0.4c-0.1-0.1-0.2-0.2-0.3-0.2
					c-0.1-0.2-0.3-0.3-0.4-0.5c-0.1-0.1-0.1-0.2-0.2-0.3c-0.1-0.2-0.2-0.4-0.3-0.6c0-0.1-0.1-0.2-0.1-0.3c-0.1-0.2-0.1-0.4-0.2-0.6
					c0-0.1-0.1-0.2-0.1-0.3c-0.1-0.3-0.1-0.6-0.1-0.9c0-0.1,0-0.2,0-0.2c0-0.2,0-0.5,0.1-0.7c0-0.2,0.1-0.3,0.1-0.5
					c0-0.1,0.1-0.3,0.1-0.4c0.1-0.2,0.2-0.4,0.3-0.5c0.1-0.1,0.1-0.2,0.2-0.3c0.1-0.2,0.3-0.4,0.4-0.5c0.9-1,2.2-1.7,3.7-1.7
					s2.8,0.7,3.8,1.7c0.1,0.2,0.3,0.3,0.4,0.5c0.1,0.1,0.1,0.2,0.2,0.3c0.1,0.2,0.2,0.3,0.2,0.5c0.1,0.1,0.1,0.3,0.1,0.4
					c0,0.2,0.1,0.3,0.1,0.5s0,0.4,0.1,0.5c0,0.1,0,0.3,0,0.4C279.5,72.4,279.5,72.6,279.3,72.8z M283.5,68.8h-3.3
					c-1.2-2-3.2-3.2-5.5-3.2c-2.4,0-4.5,1.3-5.5,3.2h-3.4v-3.3c0-1.3,1-2.3,2.3-2.3h13.1c1.3,0,2.3,1,2.3,2.3V68.8L283.5,68.8z"/>
			</g>
		</g>
	</g>
	<g>
		<rect x="154.8" y="57.5" class="st0" width="29.1" height="29.1"/>
		<g>
			<path d="M172.9,65.7h1.8c0.3,0,0.5-0.2,0.5-0.4v-3.2c0-0.2-0.2-0.4-0.4-0.4H172c-2.7-0.2-5,1.8-5.2,4.5c0,0.2,0,0.5,0,0.7v2.3
				H164c-0.3,0-0.5,0.2-0.5,0.4V73c0,0.2,0.2,0.4,0.5,0.4h2.8v8.7c0,0.2,0.2,0.4,0.5,0.4l0,0h3.7c0.3,0,0.5-0.2,0.5-0.4v-8.7h3.3
				c0.3,0,0.5-0.2,0.5-0.4l0,0v-3.5c0-0.2-0.2-0.4-0.5-0.4h-3.3v-2C171.4,66.2,171.7,65.7,172.9,65.7"/>
		</g>
	</g>
	<g>
		<rect x="119.8" y="57.5" class="st0" width="29.1" height="29.1"/>
		<g>
			<g>
				<path d="M135.3,73l-1-0.8c-0.2-0.1-0.3-0.3-0.3-0.5c0-0.3,0.2-0.6,0.4-0.8l0,0c1.5-0.9,2.3-2.4,2.4-4.2c0-1-0.3-2-0.9-2.8h0.2
					l1.5-1c0.4-0.2,0.5-0.7,0.2-1l-0.3-0.4h-5c-2-0.1-3.8,0.5-5.3,1.7c-1.2,1-1.8,2.4-1.8,4c0,1.3,0.5,2.4,1.3,3.3
					c0.9,0.9,2,1.3,3.3,1.3l0,0h0.1c0,0.1,0,0.2,0,0.3c0,0.4,0.1,0.8,0.3,1c-1.3,0.2-2.7,0.6-4,1.2c-1.3,0.7-2.2,2.2-2.3,3.7
					c0,2.2,2,4.4,6.1,4.4c4.8,0,7.4-2.8,7.4-5.5C137.6,75.4,136.7,73.8,135.3,73z M129.1,66c0-0.5,0.1-1,0.4-1.5
					c0.3-0.4,0.8-0.6,1.3-0.6c1.5,0,2.5,2.4,2.5,4.1c0,0.5-0.1,1-0.4,1.3c-0.4,0.3-0.8,0.5-1.3,0.5C129.8,69.8,129.1,67.3,129.1,66z
					 M131.6,80.2c-2.3,0-3.8-1-3.8-2.4c0-1,0.7-1.8,1.7-2c0.8-0.2,1.7-0.4,2.5-0.4h0.1c0.1,0,0.2,0,0.2,0c1.7,1.3,2.3,1.7,2.3,2.7
					C134.6,79.4,133.5,80.2,131.6,80.2z"/>
			</g>
			<g>
				<path d="M144.6,71.2l-0.5-0.5h-2.2V69c0-0.4-0.4-0.8-0.8-0.8h-1c-0.4,0-0.8,0.4-0.8,0.8v1.7h-1.7c-0.4,0-0.8,0.4-0.8,0.8v1
					c0,0.4,0.4,0.8,0.8,0.8h1.7v1.8c0,0.4,0.4,0.8,0.8,0.8h1c0.4,0,0.8-0.4,0.8-0.8v-1.8h1.8c0.4,0,0.8-0.4,0.8-0.8L144.6,71.2
					L144.6,71.2z"/>
			</g>
		</g>
	</g>
	<g>
		<rect x="243.8" y="168.2" class="st0" width="52.5" height="52.5"/>
		<g>
			<path class="st1" d="M270.1,214.4c-11,0-20-9-20-20s9-20,20-20s20,9,20,20S281.2,214.4,270.1,214.4z"/>
		</g>
		<g>
			<g>
				<path d="M270.1,214.4c-11,0-20-9-20-20s9-20,20-20s20,9,20,20S281.2,214.4,270.1,214.4z M270.1,176.6c-9.8,0-17.9,8-17.9,17.9
					s8,17.9,17.9,17.9s17.9-8,17.9-17.9C288,184.5,280,176.6,270.1,176.6z"/>
			</g>
			<g>
				<g>
					<path d="M270.1,196.2c-3.2,0-5.8-2.7-5.8-5.8s2.7-5.8,5.8-5.8c3.1,0,5.8,2.7,5.8,5.8S273.3,196.2,270.1,196.2z M270.1,186.8
						c-2,0-3.6,1.7-3.6,3.6c0,2,1.7,3.6,3.6,3.6c2,0,3.6-1.7,3.6-3.6C273.7,188.3,272.1,186.8,270.1,186.8z"/>
				</g>
				<g>
					<path d="M278.3,204.3c-0.6,0-1-0.5-1-1c0-3.9-3.2-7.1-7.1-7.1s-7.1,3.2-7.1,7.1c0,0.6-0.5,1-1,1s-1-0.5-1-1
						c0-5.2,4.2-9.2,9.2-9.2c5.2,0,9.2,4.2,9.2,9.2C279.3,203.9,278.8,204.3,278.3,204.3z"/>
				</g>
			</g>
		</g>
	</g>
	<g>
		<rect x="13.6" y="107.1" class="st0" width="31.1" height="31.1"/>
		<g>
			<path d="M35.6,134.8H21.8c-1.3,0-2.5-1.2-2.5-2.5v-16.5c0-1.3,1.2-2.5,2.5-2.5h1.3c0.4,0,0.7,0.3,0.7,0.7s-0.3,0.7-0.7,0.7h-1.3
				c-0.7,0-1.3,0.6-1.3,1.3v16.5c0,0.7,0.6,1.3,1.3,1.3h13.9c0.7,0,1.3-0.6,1.3-1.3V116c0-0.7-0.6-1.3-1.3-1.3h-2.5
				c-0.3,0-0.6-0.1-0.8-0.3c-0.2-0.2-0.3-0.5-0.3-0.8V112h-5.5v3h2.7c0.4,0,0.7,0.3,0.7,0.7c0,0.4-0.3,0.7-0.7,0.7h-2.7
				c-0.7,0-1.3-0.6-1.3-1.3V112c0-0.3,0.1-0.7,0.4-0.9c0.2-0.2,0.6-0.4,0.9-0.4h5.7c0.4,0,0.7,0.1,0.9,0.4s0.4,0.6,0.4,0.9v1.5h2.3
				c1.3,0,2.5,1.2,2.5,2.5v16.5C38.2,133.7,37,134.8,35.6,134.8z"/>
		</g>
		<g>
			<path d="M28.1,128.2c-0.3,0-0.6-0.1-0.8-0.3l-2-2c-0.3-0.3-0.3-0.7,0-0.9c0.3-0.3,0.7-0.3,0.9,0l2,1.8l4.2-6.4
				c0.2-0.3,0.6-0.4,0.9-0.2c0.3,0.2,0.4,0.6,0.2,0.9l-4.4,6.6c-0.2,0.3-0.5,0.5-0.8,0.5C28.3,128.2,28.3,128.2,28.1,128.2z"/>
		</g>
	</g>
	<g>
		<rect x="50.6" y="107.1" class="st0" width="31.1" height="31.1"/>
		<g>
			<g>
				<path d="M67.9,126.8c-0.4,0-0.7-0.3-0.7-0.7v-12.2l-2.3,2.5c-0.3,0.3-0.7,0.3-0.9,0c-0.1-0.1-0.2-0.3-0.2-0.5s0.1-0.3,0.2-0.5
					l3.5-3.7l0,0l0,0l0,0l0,0l0,0l0,0l0,0l0,0l0,0l0,0l0,0l0,0c0.1-0.1,0.2-0.1,0.3-0.2l0,0l0,0h0.1c0.1,0,0.2,0,0.3,0l0,0l0,0l0,0
					c0.1,0,0.1,0.1,0.2,0.1l3.8,3.6c0.3,0.3,0.3,0.7,0,0.9c-0.3,0.3-0.7,0.3-0.9,0l-2.7-2.7v12.4C68.6,126.6,68.2,126.8,67.9,126.8z
					"/>
			</g>
		</g>
		<g>
			<g>
				<g>
					<path d="M64.4,133.8c-0.1,0-0.2,0-0.2,0l0,0l0,0l0,0c-0.1,0-0.1-0.1-0.2-0.1l-3.8-3.6c-0.3-0.3-0.3-0.7,0-0.9
						c0.3-0.3,0.7-0.3,0.9,0l2.7,2.7v-12.4c0-0.4,0.3-0.7,0.7-0.7c0.4,0,0.7,0.3,0.7,0.7v12.2l2.3-2.5c0.3-0.3,0.7-0.3,0.9,0
						c0.1,0.1,0.2,0.3,0.2,0.5s-0.1,0.3-0.2,0.5l-3.5,3.7l0,0l0,0l0,0l0,0l0,0l0,0l0,0l0,0l0,0l0,0l0,0l0,0
						c-0.1,0.1-0.2,0.1-0.3,0.2l0,0l0,0C64.6,133.7,64.4,133.8,64.4,133.8L64.4,133.8z"/>
				</g>
			</g>
		</g>
	</g>
	<g>
		<rect x="87.5" y="107.1" class="st0" width="31.1" height="31.1"/>
		<g>
			<path d="M101.8,135.3c-0.9,0-1.5-0.7-1.5-1.5v-10.3l-6.8-10.3c-0.1-0.1-0.1-0.2-0.1-0.4c0-0.9,0.7-1.5,1.5-1.5h16.4
				c0.9,0,1.5,0.7,1.5,1.5c0,0.1,0,0.3-0.1,0.4l-7.3,10.4v7.9c0,0.5,0,1-0.6,1.5l-2.7,2.2C102.2,135.2,102,135.3,101.8,135.3z
				 M94.8,112.6l6.8,10.3c0.1,0.1,0.1,0.2,0.1,0.4v10.5c0,0.1,0,0.1,0.1,0.2l2.4-2l0,0c0.1,0,0.1-0.1,0.1-0.5v-0.2v-7.9
				c0-0.1,0-0.3,0.1-0.4l7.2-10.2c0-0.1-0.1-0.1-0.2-0.1L94.8,112.6L94.8,112.6z"/>
		</g>
		<g>
			<path d="M104.8,124H101c-0.4,0-0.7-0.3-0.7-0.7s0.3-0.7,0.7-0.7h3.9c0.4,0,0.7,0.3,0.7,0.7S105.2,124,104.8,124z"/>
		</g>
		<g>
			<path d="M99.8,118.5c-0.2,0-0.5-0.1-0.6-0.3l-2-3.5c-0.1-0.2-0.1-0.5,0-0.7s0.3-0.3,0.6-0.3l0,0h4.1c0.4,0,0.7,0.3,0.7,0.7
				s-0.3,0.7-0.7,0.7l0,0h-3l1.5,2.5c0.2,0.3,0.1,0.7-0.2,0.9C100,118.5,99.9,118.5,99.8,118.5z"/>
		</g>
	</g>
	<g>
		<rect x="124.4" y="107.1" class="st0" width="31.1" height="31.1"/>
		<g>
			<path d="M145.1,131.9h-9.8c-1.3,0-2.2-1-2.2-2.2v-13.9c0-1.3,1-2.2,2.2-2.2h9.8c1.3,0,2.2,1,2.2,2.2v13.9
				C147.3,130.8,146.2,131.9,145.1,131.9z M135.3,114.8c-0.5,0-1,0.4-1,1v13.9c0,0.5,0.4,1,1,1h9.8c0.5,0,1-0.4,1-1v-13.9
				c0-0.5-0.4-1-1-1C145.1,114.8,135.3,114.8,135.3,114.8z"/>
		</g>
		<g>
			<path d="M134.2,134c-0.2,0-0.5,0-0.7-0.1c-0.5-0.2-0.9-0.6-1.2-1l-5.2-11c-0.5-1,0-2.2,1-2.7l3.2-1.5c0.3-0.2,0.7,0,0.9,0.3
				s0,0.7-0.3,0.9l-3.2,1.5c-0.4,0.2-0.5,0.6-0.4,1l5.2,11c0.1,0.2,0.2,0.3,0.4,0.4c0.2,0.1,0.4,0.1,0.6,0l4.1-2
				c0.3-0.2,0.7,0,0.9,0.3s0,0.7-0.3,0.9l-4.1,2C134.8,133.8,134.4,134,134.2,134z"/>
		</g>
		<g>
			<path d="M146.1,134c-0.3,0-0.6-0.1-0.9-0.2l-4.1-2c-0.3-0.2-0.5-0.6-0.3-0.9c0.2-0.3,0.6-0.5,0.9-0.3l4.1,2
				c0.2,0.1,0.4,0.1,0.6,0c0.2-0.1,0.3-0.2,0.4-0.4l5.2-11c0.2-0.4,0-0.8-0.4-1l-3.2-1.5c-0.3-0.2-0.5-0.6-0.3-0.9s0.6-0.5,0.9-0.3
				l3.2,1.5c1,0.5,1.5,1.7,1,2.7l-5.2,11c-0.2,0.5-0.7,0.9-1.2,1C146.5,133.8,146.3,134,146.1,134z"/>
		</g>
	</g>
	<g>
		<rect x="161.3" y="107.1" class="st0" width="31.1" height="31.1"/>
		<g>
			<g>
				<path d="M186.2,132.3c-0.2,0-0.3-0.1-0.5-0.2l-18.2-18.2c-0.3-0.3-0.3-0.7,0-0.9s0.7-0.3,0.9,0l18.2,18.2c0.3,0.3,0.3,0.7,0,0.9
					C186.6,132.2,186.4,132.3,186.2,132.3z"/>
			</g>
			<g>
				<path d="M168,132.3c-0.2,0-0.3-0.1-0.5-0.2c-0.3-0.3-0.3-0.7,0-0.9l18.2-18.2c0.3-0.3,0.7-0.3,0.9,0s0.3,0.7,0,0.9l-18.2,18.2
					C168.5,132.2,168.2,132.3,168,132.3z"/>
			</g>
		</g>
	</g>
	<g>
		<rect x="38" y="8" class="st0" width="19.4" height="19.4"/>
		<g>
			<g>
				<path d="M53.6,23.7c-0.1,0-0.2,0-0.3-0.1L41.9,12.3c-0.2-0.2-0.2-0.4,0-0.6c0.2-0.2,0.4-0.2,0.6,0l11.4,11.4
					c0.2,0.2,0.2,0.4,0,0.6C53.7,23.7,53.7,23.7,53.6,23.7z"/>
			</g>
			<g>
				<path d="M42.2,23.7c-0.1,0-0.2,0-0.3-0.1c-0.2-0.2-0.2-0.4,0-0.6l11.4-11.2c0.2-0.2,0.4-0.2,0.6,0c0.2,0.2,0.2,0.4,0,0.6
					L42.5,23.6C42.4,23.7,42.3,23.7,42.2,23.7z"/>
			</g>
		</g>
	</g>
	<g>
		<rect x="295" y="57.5" class="st0" width="29.1" height="29.1"/>
		<g>
			<g>
				<path d="M318.4,81.2c-0.2,0-0.3-0.1-0.4-0.2l-17-17c-0.2-0.2-0.2-0.6,0-0.9c0.2-0.3,0.6-0.2,0.9,0l17,17c0.2,0.2,0.2,0.6,0,0.9
					C318.8,81.1,318.7,81.2,318.4,81.2z"/>
			</g>
			<g>
				<path d="M301.5,81.2c-0.2,0-0.3-0.1-0.4-0.2c-0.2-0.2-0.2-0.6,0-0.9l17-17c0.2-0.2,0.6-0.2,0.9,0s0.2,0.6,0,0.9l-17,17
					C301.8,81.1,301.7,81.2,301.5,81.2z"/>
			</g>
		</g>
	</g>
	<g>
		<rect x="139.9" y="8" class="st0" width="23.3" height="23.3"/>
		<g>
			<path d="M149.1,26.7c-0.4,0-0.7-0.1-1-0.4l-3.8-3.6c-0.2-0.2-0.2-0.5,0-0.7s0.5-0.2,0.7,0l3.9,3.7c0.1,0.1,0.2,0.1,0.3,0.1
				s0.2,0,0.3-0.2l8-12.4c0.2-0.2,0.5-0.3,0.7-0.1s0.3,0.5,0.1,0.7l-8,12.4c-0.2,0.3-0.6,0.6-1,0.6
				C149.2,26.7,149.2,26.7,149.1,26.7z"/>
		</g>
	</g>
	<g>
		<rect x="13.6" y="8" class="st0" width="19.4" height="19.4"/>
		<g>
			<g>
				<path d="M22.1,22.5c-0.1,0-0.2,0-0.3-0.1l-4.5-4.2l0,0l0,0l0,0l0,0l0,0l0,0l0,0l0,0l0,0c-0.1-0.1-0.1-0.1-0.1-0.1l0,0l0,0
					c0,0,0,0,0-0.1l0,0l0,0c0-0.1,0-0.1,0-0.2l0,0l0,0l0,0l0,0l0,0l0.1-0.1l4.7-4.8c0.2-0.2,0.4-0.2,0.6,0s0.2,0.4,0,0.6l-3.9,4H30
					c0.2,0,0.4,0.2,0.4,0.4c0,0.2-0.2,0.4-0.4,0.4H18.6l3.8,3.5c0.1,0.1,0.1,0.2,0.1,0.3c0,0.1,0,0.2-0.1,0.3
					C22.4,22.5,22.3,22.5,22.1,22.5z"/>
			</g>
		</g>
	</g>
	<g>
		<rect x="170" y="8" class="st0" width="25.2" height="25.2"/>
		<g>
			<g>
				<path d="M181.1,26.9c-0.1,0-0.3,0-0.4-0.1l-5.9-5.4l0,0l0,0l0,0l0,0l0,0l0,0l0,0l0,0l0,0c-0.1-0.1-0.1-0.1-0.1-0.2l0,0l0,0
					c0,0,0,0,0-0.1l0,0l0,0c0-0.1,0-0.2,0-0.3l0,0l0,0l0,0l0,0l0,0c0-0.1,0.1-0.1,0.1-0.2l5.9-6.2c0.2-0.2,0.6-0.2,0.8,0
					s0.2,0.6,0,0.8l-5.2,5.2h14.9c0.3,0,0.5,0.2,0.5,0.5s-0.2,0.5-0.5,0.5h-14.7l5,4.5c0.1,0.1,0.2,0.3,0.2,0.4s0,0.3-0.1,0.4
					C181.4,26.9,181.2,26.9,181.1,26.9z"/>
			</g>
		</g>
	</g>
	<g>
		<rect x="330.1" y="57.5" class="st0" width="29.1" height="29.1"/>
		<g>
			<g>
				<path d="M342.8,79c-0.3,0-0.5-0.1-0.7-0.3l-3-3c-0.4-0.4-0.4-1,0-1.3l10.7-10.7c1.2-1.2,3.1-1.2,4.4,0c1.2,1.2,1.2,3.1,0,4.4
					l-10.7,10.7C343.2,78.9,343,79,342.8,79z M340.1,75l2.7,2.7l10.5-10.5c0.4-0.4,0.6-0.8,0.6-1.3s-0.2-1-0.6-1.3
					c-0.7-0.7-2-0.7-2.7,0L340.1,75z"/>
			</g>
			<g>
				<polygon points="341.5,77.2 340.6,76.4 349.7,67.3 348.3,66 349.3,65.1 350.5,66.5 350.5,66.5 352.7,68.6 351.9,69.5 
					350.5,68.1 				"/>
			</g>
			<g>
				<path d="M336.5,82.2c-0.2,0-0.4-0.1-0.5-0.2c-0.2-0.2-0.2-0.4-0.1-0.7l3.1-6.7c0.1-0.3,0.5-0.5,0.8-0.3c0.3,0.1,0.4,0.5,0.3,0.8
					l-2.5,5.5l3.5-0.9c0.3-0.1,0.7,0.1,0.8,0.5c0.1,0.3-0.1,0.7-0.5,0.8L336.5,82.2L336.5,82.2z"/>
			</g>
		</g>
	</g>
	<g>
		<rect x="365.2" y="57.5" class="st0" width="29.1" height="29.1"/>
		<g>
			<path d="M380.2,82.2l-0.4-0.3c-0.1-0.1-2.2-1.5-4.5-3.9l0.9-0.9c1.7,1.7,3.4,2.9,4.1,3.5c1.7-1.3,9.5-7.2,9.5-12.4
				c0-2.8-2-4.2-3.9-4.5c-2-0.3-4.3,0.4-5,2.3l-0.5,1.5l-0.7-1.3c-0.8-2-3.4-2.7-5.4-2.3c-2.2,0.4-3.5,2-3.5,4.3c0,1.8,1,4,2.9,6.4
				l-1,0.8c-2.2-2.7-3.2-5-3.2-7.1c0-3.4,2.3-5,4.5-5.4s4.8,0.2,6.2,2c1.3-1.8,3.7-2.4,5.8-2c2.2,0.4,5,2.2,5,5.7
				c0,6.4-9.9,13.3-10.4,13.6L380.2,82.2z"/>
		</g>
		<g>
			<path d="M377.7,75.5l1,1.5l1-4.3l-4.3-1l1,1.7l-0.6,0.3c-1.3,0.7-2.3,1.7-2.8,3.1s-0.4,2.9,0.2,4.3c0.8-4.2,4.1-5.3,4.2-5.3
				L377.7,75.5z"/>
		</g>
	</g>
	<g>
		<rect x="62.2" y="8" class="st0" width="19.4" height="19.4"/>
		<g>
			<path d="M72.1,21.2L72.1,21.2c-0.1,0-0.2,0-0.3-0.1l-6.2-6.2c-0.2-0.2-0.2-0.4,0-0.6c0.2-0.1,0.4-0.2,0.6,0l5.9,5.9l6-5.9
				c0.2-0.2,0.4-0.2,0.6,0s0.2,0.4,0,0.6l-6.3,6.2C72.4,21.2,72.2,21.2,72.1,21.2z"/>
		</g>
	</g>
	<g>
		<rect x="86.5" y="8" class="st0" width="19.4" height="19.4"/>
		<g>
			<path d="M90.3,21.2c-0.1,0-0.2,0-0.3-0.1c-0.2-0.2-0.2-0.4,0-0.6l6.2-6.2c0.1-0.1,0.2-0.1,0.3-0.1l0,0c0.1,0,0.2,0,0.3,0.1
				l6.2,6.2c0.2,0.2,0.2,0.4,0,0.6s-0.4,0.2-0.6,0l-5.9-5.9l-6,5.9C90.5,21.2,90.4,21.2,90.3,21.2z"/>
		</g>
	</g>
	<g>
		<rect x="272" y="107.1" class="st0" width="31.1" height="31.1"/>
		<g>
			<g>
				<path d="M297.3,130.3h-19.6c-1,0-2-0.9-2-2v-11.5c0-1,0.9-2,2-2h19.6c1,0,2,0.9,2,2v11.5C299.2,129.3,298.4,130.3,297.3,130.3z
					 M277.7,116.1c-0.4,0-0.7,0.3-0.7,0.7v11.5c0,0.4,0.3,0.7,0.7,0.7h19.6c0.4,0,0.7-0.3,0.7-0.7v-11.5c0-0.4-0.3-0.7-0.7-0.7
					C297.3,116.1,277.7,116.1,277.7,116.1z"/>
			</g>
			<g>
				<path d="M298.7,119.3h-22.2c-0.4,0-0.7-0.3-0.7-0.7c0-0.4,0.3-0.7,0.7-0.7h22.2c0.4,0,0.7,0.3,0.7,0.7
					C299.2,119,299,119.3,298.7,119.3z"/>
			</g>
			<g>
				<path d="M298.7,122.3h-22.2c-0.4,0-0.7-0.3-0.7-0.7s0.3-0.7,0.7-0.7h22.2c0.4,0,0.7,0.3,0.7,0.7S299,122.3,298.7,122.3z"/>
			</g>
			<g>
				<path d="M288.5,125.4h-10c-0.4,0-0.7-0.3-0.7-0.7V124c0-0.4,0.3-0.7,0.7-0.7h10c0.4,0,0.7,0.3,0.7,0.7v0.7
					C289.2,125.1,289,125.4,288.5,125.4z M278.8,124.5h9.7v-0.3h-9.7V124.5z"/>
			</g>
			<g>
				<path d="M286.9,127.9h-8.4c-0.4,0-0.7-0.3-0.7-0.7v-0.7c0-0.4,0.3-0.7,0.7-0.7h8.4c0.4,0,0.7,0.3,0.7,0.7v0.7
					C287.6,127.6,287.2,127.9,286.9,127.9z M278.8,127h8v-0.3h-8V127z"/>
			</g>
			<g>
				<path d="M295.7,128c-0.8,0-1.5-0.7-1.5-1.5s0.7-1.5,1.5-1.5s1.5,0.7,1.5,1.5C297.1,127.3,296.4,128,295.7,128z M295.7,126
					c-0.3,0-0.6,0.3-0.6,0.6c0,0.3,0.3,0.6,0.6,0.6c0.3,0,0.6-0.3,0.6-0.6C296.2,126.2,296,126,295.7,126z"/>
			</g>
			<g>
				<path d="M293.6,127.9c-0.8,0-1.5-0.7-1.5-1.5s0.7-1.5,1.5-1.5s1.5,0.7,1.5,1.5C295,127.2,294.4,127.9,293.6,127.9z M293.6,126
					c-0.3,0-0.6,0.3-0.6,0.6c0,0.3,0.3,0.6,0.6,0.6c0.3,0,0.6-0.3,0.6-0.6C294.2,126.2,293.9,126,293.6,126z"/>
			</g>
		</g>
	</g>
	<g>
		<rect x="235" y="107.1" class="st0" width="31.1" height="31.1"/>
		<g>
			<g>
				<path d="M260.4,130.3h-19.6c-1,0-2-0.9-2-2v-11.5c0-1,0.9-2,2-2h19.6c1,0,2,0.9,2,2v11.5C262.3,129.3,261.4,130.3,260.4,130.3z
					 M240.8,116.1c-0.4,0-0.7,0.3-0.7,0.7v11.5c0,0.4,0.3,0.7,0.7,0.7h19.6c0.4,0,0.7-0.3,0.7-0.7v-11.5c0-0.4-0.3-0.7-0.7-0.7
					C260.4,116.1,240.8,116.1,240.8,116.1z"/>
			</g>
			<g>
				<path d="M261.8,118.8h-22.2c-0.4,0-0.7-0.3-0.7-0.7c0-0.4,0.3-0.7,0.7-0.7h22.2c0.4,0,0.7,0.3,0.7,0.7S262.1,118.8,261.8,118.8z
					"/>
			</g>
			<g>
				<path d="M261.8,121.4h-22.2c-0.4,0-0.7-0.3-0.7-0.7s0.3-0.7,0.7-0.7h22.2c0.4,0,0.7,0.3,0.7,0.7
					C262.3,121.1,262.1,121.4,261.8,121.4z"/>
			</g>
			<g>
				<path d="M245.7,124h-3.8c-0.4,0-0.7-0.3-0.7-0.7c0-0.4,0.3-0.7,0.7-0.7h3.8c0.4,0,0.7,0.3,0.7,0.7
					C246.4,123.8,246,124,245.7,124z"/>
			</g>
			<g>
				<path d="M251.7,124H248c-0.4,0-0.7-0.3-0.7-0.7c0-0.4,0.3-0.7,0.7-0.7h3.8c0.4,0,0.7,0.3,0.7,0.7
					C252.4,123.8,252.1,124,251.7,124z"/>
			</g>
			<g>
				<path d="M258.2,124h-3.7c-0.4,0-0.7-0.3-0.7-0.7c0-0.4,0.3-0.7,0.7-0.7h3.8c0.4,0,0.7,0.3,0.7,0.7
					C258.9,123.8,258.6,124,258.2,124z"/>
			</g>
			<g>
				<path d="M244.7,126.7H242c-0.4,0-0.7-0.3-0.7-0.7c0-0.4,0.3-0.7,0.7-0.7h2.8c0.4,0,0.7,0.3,0.7,0.7
					C245.4,126.4,245.1,126.7,244.7,126.7z"/>
			</g>
		</g>
	</g>
	<g>
		<rect x="382.6" y="107.1" class="st0" width="31.1" height="31.1"/>
		<g>
			<g>
				<path d="M408,130.3h-19.6c-1,0-2-0.9-2-2v-11.5c0-1,0.9-2,2-2H408c1,0,2,0.9,2,2v11.5C410,129.3,409.1,130.3,408,130.3z
					 M388.4,116.1c-0.4,0-0.7,0.3-0.7,0.7v11.5c0,0.4,0.3,0.7,0.7,0.7H408c0.4,0,0.7-0.3,0.7-0.7v-11.5c0-0.4-0.3-0.7-0.7-0.7
					C408,116.1,388.4,116.1,388.4,116.1z"/>
			</g>
			<g>
				<path d="M409.3,118.8h-22.2c-0.4,0-0.7-0.3-0.7-0.7c0-0.4,0.3-0.7,0.7-0.7h22.2c0.4,0,0.7,0.3,0.7,0.7S409.7,118.8,409.3,118.8z
					"/>
			</g>
			<g>
				<path d="M409.3,121.4h-22.2c-0.4,0-0.7-0.3-0.7-0.7s0.3-0.7,0.7-0.7h22.2c0.4,0,0.7,0.3,0.7,0.7S409.7,121.4,409.3,121.4z"/>
			</g>
			<g>
				<path d="M393.3,124h-3.8c-0.4,0-0.7-0.3-0.7-0.7c0-0.4,0.3-0.7,0.7-0.7h3.8c0.4,0,0.7,0.3,0.7,0.7
					C394,123.8,393.6,124,393.3,124z"/>
			</g>
			<g>
				<path d="M399.3,124h-3.8c-0.4,0-0.7-0.3-0.7-0.7c0-0.4,0.3-0.7,0.7-0.7h3.8c0.4,0,0.7,0.3,0.7,0.7
					C400,123.8,399.6,124,399.3,124z"/>
			</g>
			<g>
				<rect x="403.1" y="125.4" width="2.8" height="2"/>
			</g>
		</g>
	</g>
	<g>
		<rect x="198.1" y="107.1" class="st0" width="31.1" height="31.1"/>
		<g>
			<g>
				<path d="M223.5,130.3h-19.6c-1,0-2-0.9-2-2v-11.5c0-1,0.9-2,2-2h19.6c1,0,2,0.9,2,2v11.5C225.5,129.3,224.6,130.3,223.5,130.3z
					 M203.9,116.1c-0.4,0-0.7,0.3-0.7,0.7v11.5c0,0.4,0.3,0.7,0.7,0.7h19.6c0.4,0,0.7-0.3,0.7-0.7v-11.5c0-0.4-0.3-0.7-0.7-0.7
					C223.5,116.1,203.9,116.1,203.9,116.1z"/>
			</g>
			<g>
				<path d="M224.8,119.8h-22.2c-0.2,0-0.4-0.2-0.4-0.4c0-0.2,0.2-0.4,0.4-0.4h22.2c0.2,0,0.4,0.2,0.4,0.4
					C225.3,119.6,225,119.8,224.8,119.8z"/>
			</g>
			<g>
				<path d="M208.8,121.5H205c-0.2,0-0.4-0.2-0.4-0.4s0.2-0.4,0.4-0.4h3.8c0.2,0,0.4,0.2,0.4,0.4C209.1,121.3,209,121.5,208.8,121.5
					z"/>
			</g>
			<g>
				<path d="M207.9,123h-2.8c-0.2,0-0.4-0.2-0.4-0.4s0.2-0.4,0.4-0.4h2.8c0.2,0,0.4,0.2,0.4,0.4S208.1,123,207.9,123z"/>
			</g>
			<g>
				<path d="M222.8,118.5h-13.4c-0.3,0-0.5-0.2-0.5-0.5v-0.6c0-0.3,0.2-0.5,0.5-0.5h13.4c0.3,0,0.5,0.2,0.5,0.5v0.6
					C223.3,118.3,223.1,118.5,222.8,118.5z M209.4,117.4L209.4,117.4v0.6l0,0h13.4l0,0v-0.6l0,0H209.4z"/>
			</g>
			<g>
				<path d="M204.6,118.3c-0.3,0-0.6-0.2-0.6-0.6c0-0.3,0.2-0.6,0.6-0.6c0.3,0,0.6,0.2,0.6,0.6S205.1,118.3,204.6,118.3z
					 M204.6,117.4c-0.2,0-0.3,0.1-0.3,0.3c0,0.2,0.1,0.3,0.3,0.3s0.3-0.1,0.3-0.3C205.1,117.6,204.9,117.4,204.6,117.4z"/>
			</g>
			<g>
				<path d="M206,118.3c-0.3,0-0.6-0.2-0.6-0.6c0-0.3,0.2-0.6,0.6-0.6c0.4,0,0.6,0.2,0.6,0.6C206.5,118.1,206.3,118.3,206,118.3z
					 M206,117.4c-0.2,0-0.3,0.1-0.3,0.3c0,0.2,0.1,0.3,0.3,0.3s0.3-0.1,0.3-0.3C206.3,117.6,206.3,117.4,206,117.4z"/>
			</g>
			<g>
				<path d="M207.3,118.3c-0.3,0-0.6-0.2-0.6-0.6c0-0.3,0.2-0.6,0.6-0.6c0.3,0,0.6,0.2,0.6,0.6S207.6,118.3,207.3,118.3z
					 M207.3,117.4c-0.2,0-0.3,0.1-0.3,0.3c0,0.2,0.1,0.3,0.3,0.3s0.3-0.1,0.3-0.3C207.6,117.6,207.5,117.4,207.3,117.4z"/>
			</g>
			<g>
				<path d="M208.8,124.3H205c-0.2,0-0.4-0.2-0.4-0.4s0.2-0.4,0.4-0.4h3.8c0.2,0,0.4,0.2,0.4,0.4C209.1,124.1,209,124.3,208.8,124.3
					z"/>
			</g>
			<g>
				<path d="M215.3,125.8h-3.8c-0.2,0-0.4-0.2-0.4-0.4c0-0.2,0.2-0.4,0.4-0.4h3.8c0.2,0,0.4,0.2,0.4,0.4
					C215.8,125.6,215.5,125.8,215.3,125.8z"/>
			</g>
			<g>
				<path d="M208.8,125.6H205c-0.2,0-0.4-0.2-0.4-0.4c0-0.2,0.2-0.4,0.4-0.4h3.8c0.2,0,0.4,0.2,0.4,0.4
					C209.3,125.4,209,125.6,208.8,125.6z"/>
			</g>
			<g>
				<path d="M208.8,126.8H205c-0.2,0-0.4-0.2-0.4-0.4s0.2-0.4,0.4-0.4h3.8c0.2,0,0.4,0.2,0.4,0.4C209.3,126.7,209,126.8,208.8,126.8
					z"/>
			</g>
			<g>
				<path d="M208.8,128.2H205c-0.2,0-0.4-0.2-0.4-0.4c0-0.2,0.2-0.4,0.4-0.4h3.8c0.2,0,0.4,0.2,0.4,0.4
					C209.1,128,209,128.2,208.8,128.2z"/>
			</g>
			<g>
				<path d="M215.3,124.5h-3.5c-0.4,0-0.7-0.3-0.7-0.7v-2.5c0-0.4,0.3-0.7,0.7-0.7h3.5c0.4,0,0.7,0.3,0.7,0.7v2.5
					C216,124.2,215.6,124.5,215.3,124.5z M211.8,123.6h3.2v-2.2h-3.2V123.6z"/>
			</g>
			<g>
				<path d="M215.3,127.1h-3.8c-0.2,0-0.4-0.2-0.4-0.4c0-0.2,0.2-0.4,0.4-0.4h3.8c0.2,0,0.4,0.2,0.4,0.4
					C215.8,127,215.5,127.1,215.3,127.1z"/>
			</g>
			<g>
				<path d="M215.3,128.4h-3.8c-0.2,0-0.4-0.2-0.4-0.4s0.2-0.4,0.4-0.4h3.8c0.2,0,0.4,0.2,0.4,0.4
					C215.8,128.2,215.5,128.4,215.3,128.4z"/>
			</g>
			<g>
				<path d="M221.8,128.4h-3.5c-0.4,0-0.7-0.3-0.7-0.7v-2.5c0-0.4,0.3-0.7,0.7-0.7h3.5c0.4,0,0.7,0.3,0.7,0.7v2.5
					C222.5,128.1,222,128.4,221.8,128.4z M218.3,127.5h3.2v-2.2h-3.2V127.5z"/>
			</g>
			<g>
				<path d="M221.8,121.5H218c-0.2,0-0.4-0.2-0.4-0.4s0.2-0.4,0.4-0.4h3.8c0.2,0,0.4,0.2,0.4,0.4S222,121.5,221.8,121.5z"/>
			</g>
			<g>
				<path d="M221.8,122.8H218c-0.2,0-0.4-0.2-0.4-0.4s0.2-0.4,0.4-0.4h3.8c0.2,0,0.4,0.2,0.4,0.4S222,122.8,221.8,122.8z"/>
			</g>
			<g>
				<path d="M221.8,124.1H218c-0.2,0-0.4-0.2-0.4-0.4s0.2-0.4,0.4-0.4h3.8c0.2,0,0.4,0.2,0.4,0.4C222.3,124,222,124.1,221.8,124.1z"
					/>
			</g>
		</g>
	</g>
	<g>
		<rect x="345.8" y="107.1" class="st0" width="31.1" height="31.1"/>
		<g>
			<g>
				<path d="M368.6,133.8h-16.2c-1.2,0-2-1-2-2v-13.2c0-1.2,1-2,2-2h16.2c1.2,0,2,1,2,2v3.8h-1.3v-3.8c0-0.4-0.4-0.8-0.8-0.8h-16.2
					c-0.4,0-0.8,0.4-0.8,0.8v13.2c0,0.4,0.4,0.8,0.8,0.8h16.2c0.4,0,0.8-0.4,0.8-0.8v-4.3h1.3v4.3
					C370.7,132.8,369.7,133.8,368.6,133.8z"/>
			</g>
			<g>
				<path d="M371.1,128.1h-4.5c-1.7,0-3.2-1.5-3.2-3.2s1.5-3.2,3.2-3.2h4.8c0.6,0,1,0.5,1,1v4.2
					C372.2,127.5,371.7,128.1,371.1,128.1z M366.4,123c-1,0-2,0.9-2,2s0.9,2,2,2h4.5v-3.8L366.4,123L366.4,123z"/>
			</g>
			<g>
				<path d="M367.1,125.8c-0.5,0-0.9-0.4-0.9-0.9s0.4-0.9,0.9-0.9s0.9,0.4,0.9,0.9C367.9,125.4,367.5,125.8,367.1,125.8z
					 M367.1,124.5c-0.3,0-0.5,0.2-0.5,0.5s0.2,0.5,0.5,0.5s0.5-0.2,0.5-0.5C367.5,124.7,367.3,124.5,367.1,124.5z"/>
			</g>
			<g>
				<path d="M352.3,117.8l-0.5-1.3l13.8-5.2c0.6-0.2,1.3-0.1,1.8,0.2c0.5,0.4,0.8,0.9,0.9,1.5v3.8H367V113c0-0.3-0.2-0.5-0.3-0.5
					c-0.2-0.1-0.4-0.2-0.7-0.1L352.3,117.8z"/>
			</g>
		</g>
	</g>
	<g>
		<rect x="308.9" y="107.1" class="st0" width="31.1" height="31.1"/>
		<g>
			<g>
				<path d="M336.5,126.3h-10.9c-0.2,0-0.4-0.2-0.4-0.4c0-0.2,0.2-0.4,0.4-0.4l0,0h10.9c0.2,0,0.5-0.2,0.5-0.4v-8.4
					c0-0.2-0.2-0.4-0.5-0.4h-14c-0.2,0-0.4-0.2-0.4-0.4s0.2-0.4,0.4-0.4h14c0.6,0,1.2,0.5,1.2,1v8.4
					C337.5,125.8,337,126.3,336.5,126.3z"/>
			</g>
			<g>
				<path d="M318.2,125.9c-0.2,0-0.4-0.2-0.4-0.4v-5.7c0-0.2,0.2-0.4,0.4-0.4l0,0c0.2,0,0.4,0.2,0.4,0.4v5.7
					C318.6,125.7,318.4,125.9,318.2,125.9L318.2,125.9z"/>
			</g>
			<g>
				<path d="M319.6,126c-0.2,0-0.4-0.2-0.4-0.4v-7.8c0-0.4,0.4-0.8,0.8-0.8h15.2c0.5,0,0.8,0.4,0.8,0.8v6.2c0,0.4-0.4,0.8-0.8,0.8
					h-11c-0.2,0-0.4-0.2-0.4-0.4s0.2-0.4,0.4-0.4h11c0.1,0,0.1-0.1,0.1-0.1v-6.2l-0.1-0.1H320c-0.1,0-0.1,0.1-0.1,0.1v7.8
					C319.9,125.9,319.8,126,319.6,126L319.6,126z"/>
			</g>
			<g>
				<g>
					<g>
						<path d="M324.6,128.2c-0.4,0-0.8-0.2-1-0.5l0,0l-1.7-2c-0.3-0.3-0.4-0.6-0.4-1s0.2-0.7,0.5-1l0.2-0.2c0.3-0.3,0.6-0.4,1-0.4
							s0.7,0.2,1,0.5l1.7,2c0.5,0.6,0.5,1.5-0.1,2l-0.2,0.2C325.3,128.1,324.9,128.2,324.6,128.2z M324.1,127.3
							c0.3,0.3,0.7,0.3,1,0.1l0.2-0.2c0.3-0.3,0.3-0.7,0.1-1l-1.7-2c-0.1-0.1-0.3-0.2-0.5-0.2s-0.4,0.1-0.5,0.2l-0.2,0.2
							c-0.1,0.1-0.2,0.3-0.2,0.5s0.1,0.4,0.2,0.5L324.1,127.3z"/>
					</g>
					<g>
						<path d="M322.3,129.1L322.3,129.1c-0.5,0-0.8-0.2-1-0.5l-1.7-2c-0.3-0.3-0.4-0.6-0.4-1s0.2-0.7,0.5-1l0.2-0.2
							c0.6-0.5,1.5-0.5,2,0.1l1.7,2c0.3,0.3,0.4,0.6,0.4,1s-0.2,0.7-0.5,1l-0.2,0.2C322.9,129,322.6,129.1,322.3,129.1z M320.8,125
							c-0.2,0-0.3,0.1-0.5,0.2l-0.2,0.2c-0.1,0.1-0.2,0.3-0.2,0.5s0.1,0.4,0.2,0.5l1.7,2c0.1,0.1,0.3,0.2,0.5,0.2s0.4-0.1,0.5-0.2
							l0.2-0.2c0.1-0.1,0.2-0.3,0.2-0.5s-0.1-0.4-0.2-0.5l-1.7-2C321.1,125,320.9,125,320.8,125z"/>
					</g>
				</g>
				<g>
					<g>
						<path d="M319.9,130L319.9,130c-0.5,0-0.8-0.2-1-0.5l-1.7-2c-0.5-0.6-0.5-1.5,0.1-2l0.2-0.2c0.6-0.5,1.5-0.5,2,0.1l1.7,2
							c0.3,0.3,0.4,0.6,0.4,1s-0.2,0.7-0.5,1l-0.2,0.2C320.6,129.8,320.3,130,319.9,130z M318.4,125.9c-0.2,0-0.3,0.1-0.5,0.2
							l-0.2,0.2c-0.3,0.3-0.3,0.7-0.1,1l1.7,2c0.1,0.1,0.3,0.2,0.5,0.2s0.4-0.1,0.5-0.2l0.2-0.2c0.1-0.1,0.2-0.3,0.2-0.5
							s-0.1-0.4-0.2-0.5l-1.7-2C318.9,125.9,318.7,125.9,318.4,125.9z"/>
					</g>
					<g>
						<path d="M317.6,130.8L317.6,130.8c-0.5,0-0.8-0.2-1-0.5l-1.7-2c-0.5-0.6-0.5-1.5,0.1-2l0.2-0.2c0.6-0.5,1.5-0.5,2,0.1l1.7,2
							c0.3,0.3,0.4,0.6,0.4,1s-0.2,0.7-0.5,1l-0.2,0.2C318.3,130.7,318,130.8,317.6,130.8z M316.1,126.8c-0.2,0-0.3,0.1-0.5,0.2
							l-0.2,0.2c-0.3,0.3-0.3,0.7-0.1,1l1.7,2c0.1,0.1,0.3,0.2,0.5,0.2s0.4-0.1,0.5-0.2l0.2-0.2c0.1-0.1,0.2-0.3,0.2-0.5
							s-0.1-0.4-0.2-0.5l-1.7-2C316.6,126.8,316.4,126.8,316.1,126.8z"/>
					</g>
				</g>
				<g>
					<path d="M315.9,129.3c-0.1,0-0.2,0-0.3-0.1l-4.2-4.8c-0.1-0.1-0.1-0.4,0-0.5s0.4-0.1,0.5,0l4.2,4.8c0.1,0.1,0.1,0.4,0,0.5
						C315.9,129.3,315.9,129.3,315.9,129.3z"/>
				</g>
				<g>
					<path d="M314.6,123.1c-0.2,0-0.3-0.1-0.4-0.3c0-0.2,0.1-0.4,0.3-0.4c3.5-0.5,3.4-2.7,3.3-4.1c0-0.6,0-0.9,0.2-1.2
						c0.1-0.1,0.2-0.2,0.4-0.2h2.7c0.6,0,1-0.5,1-1s-0.5-1-1-1h-2c-4.4-0.1-6.2,2.8-6.9,5.3c-0.1,0.2-0.3,0.3-0.4,0.2
						c-0.2-0.1-0.3-0.3-0.2-0.4c0.8-2.7,2.8-5.9,7.5-5.8h0.1h1.8c1,0,1.7,0.8,1.7,1.7s-0.8,1.7-1.7,1.7h-2.5c0,0.1,0,0.4,0,0.6
						C318.7,119.8,318.8,122.6,314.6,123.1C314.7,123.1,314.7,123.1,314.6,123.1z"/>
				</g>
			</g>
			<g>
				<path d="M327.8,123.1L327.8,123.1h0.6c0,0,0.1,0,0.1-0.1v-0.1c-0.5-0.7-1-1.2-1.3-1.5c0.3,0,0.6-0.1,0.8-0.3
					c0.2-0.2,0.3-0.4,0.4-0.7h0.5c0,0,0.1,0,0.1-0.1l0,0V120c0,0,0,0,0-0.1c0,0,0,0-0.1,0h-0.6c0-0.1-0.1-0.3-0.2-0.4h0.7
					c0,0,0.1,0,0.1-0.1l0,0v-0.3c0,0,0-0.1-0.1-0.1l0,0h-2.2c0,0-0.1,0-0.1,0.1l0,0v0.4c0,0,0,0.1,0.1,0.1h0.4
					c0.4,0,0.6,0.1,0.8,0.3h-1.2c0,0-0.1,0-0.1,0.1l0,0v0.3c0,0,0,0.1,0.1,0.1l0,0h1.2c0,0.2-0.1,0.3-0.3,0.3
					c-0.2,0.1-0.4,0.1-0.6,0.1h-0.3c0,0-0.1,0-0.1,0.1v0.4c0,0,0,0,0,0.1C326.8,121.9,327.2,122.5,327.8,123.1z"/>
			</g>
		</g>
	</g>
	<g>
		<rect x="105" y="168.2" class="st0" width="38.8" height="38.8"/>
		<g>
			<g>
				<path d="M130.9,185.8c-3.2,0-5.9-2.7-5.9-5.9s2.7-5.9,5.9-5.9c3.2,0,5.9,2.7,5.9,5.9C136.8,183.1,134.2,185.8,130.9,185.8z
					 M130.9,175.6c-2.3,0-4.3,2-4.3,4.3s2,4.3,4.3,4.3s4.3-2,4.3-4.3C135.3,177.5,133.3,175.6,130.9,175.6z"/>
			</g>
			<g>
				<path d="M114.1,197c-2.7,0-5-2.2-5-5c0-2.7,2.2-5,5-5c2.7,0,5,2.2,5,5C119.1,194.7,116.9,197,114.1,197z M114.1,188.7
					c-1.8,0-3.3,1.5-3.3,3.3s1.5,3.3,3.3,3.3s3.3-1.5,3.3-3.3C117.5,190.2,115.9,188.7,114.1,188.7z"/>
			</g>
			<g>
				<path d="M129.5,201.4c-2.2,0-4-1.7-4-4c0-2.2,1.7-4,4-4c2.2,0,4,1.7,4,4C133.5,199.6,131.8,201.4,129.5,201.4z M129.5,195
					c-1.3,0-2.3,1-2.3,2.3s1,2.3,2.3,2.3s2.3-1,2.3-2.3S130.9,195,129.5,195z"/>
			</g>
			<g>
				<path d="M117.3,190.1c-0.3,0-0.5-0.1-0.7-0.4c-0.2-0.4-0.1-0.9,0.3-1l9.8-6.1c0.4-0.2,0.9-0.1,1,0.3c0.2,0.4,0.1,0.9-0.3,1
					l-9.8,6.1C117.6,190.1,117.4,190.1,117.3,190.1z"/>
			</g>
			<g>
				<path d="M126.4,197.5c-0.1,0-0.2,0-0.3-0.1l-8.4-3.5c-0.4-0.2-0.6-0.7-0.4-1c0.2-0.4,0.7-0.6,1-0.4l8.4,3.5
					c0.4,0.2,0.6,0.7,0.4,1C127,197.3,126.7,197.5,126.4,197.5z"/>
			</g>
		</g>
	</g>
	<g>
		<rect x="150.6" y="168.2" class="st0" width="38.8" height="38.8"/>
		<g>
			<g>
				<path d="M183.1,200h-26.3c-1.3,0-2.4-1-2.4-2.4v-19.8c0-1.3,1-2.4,2.4-2.4H183c1.3,0,2.4,1,2.4,2.4v19.9
					C185.6,199,184.5,200,183.1,200z M156.9,176.9c-0.5,0-0.8,0.4-0.8,0.8v19.9c0,0.5,0.4,0.8,0.8,0.8h26.2c0.5,0,0.8-0.4,0.8-0.8
					v-19.9c0-0.5-0.4-0.8-0.8-0.8H156.9L156.9,176.9z"/>
			</g>
			<g>
				<path d="M161.2,200c-0.5,0-0.8-0.4-0.8-0.8v-23.3c0-0.5,0.4-0.8,0.8-0.8c0.4,0,0.8,0.4,0.8,0.8v23.2
					C162,199.7,161.7,200,161.2,200z"/>
			</g>
			<g>
				<path d="M178.4,200c-0.5,0-0.8-0.4-0.8-0.8v-23.3c0-0.5,0.4-0.8,0.8-0.8c0.3,0,0.8,0.4,0.8,0.8v23.2
					C179.2,199.7,178.9,200,178.4,200z"/>
			</g>
			<g>
				<path d="M161.2,182.3h-5.9c-0.5,0-0.8-0.4-0.8-0.8c0-0.4,0.4-0.8,0.8-0.8h5.9c0.5,0,0.8,0.4,0.8,0.8
					C162,181.9,161.7,182.3,161.2,182.3z"/>
			</g>
			<g>
				<path d="M161.2,188.2h-5.9c-0.5,0-0.8-0.4-0.8-0.8c0-0.3,0.4-0.8,0.8-0.8h5.9c0.5,0,0.8,0.4,0.8,0.8S161.7,188.2,161.2,188.2z"
					/>
			</g>
			<g>
				<path d="M161.2,194.2h-5.9c-0.5,0-0.8-0.4-0.8-0.8c0-0.3,0.4-0.8,0.8-0.8h5.9c0.5,0,0.8,0.4,0.8,0.8S161.7,194.2,161.2,194.2z"
					/>
			</g>
			<g>
				<path d="M184.4,182.3h-5.9c-0.5,0-0.8-0.4-0.8-0.8c0-0.4,0.4-0.8,0.8-0.8h5.9c0.5,0,0.8,0.4,0.8,0.8
					C185.2,181.9,184.9,182.3,184.4,182.3z"/>
			</g>
			<g>
				<path d="M184.4,188.2h-5.9c-0.5,0-0.8-0.4-0.8-0.8c0-0.3,0.4-0.8,0.8-0.8h5.9c0.5,0,0.8,0.4,0.8,0.8S184.9,188.2,184.4,188.2z"
					/>
			</g>
			<g>
				<path d="M184.4,194.2h-5.9c-0.5,0-0.8-0.4-0.8-0.8c0-0.3,0.4-0.8,0.8-0.8h5.9c0.5,0,0.8,0.4,0.8,0.8S184.9,194.2,184.4,194.2z"
					/>
			</g>
			<g>
				<path d="M168.5,193.1c-0.1,0-0.3,0-0.4-0.1c-0.4-0.2-0.7-0.6-0.7-1l0,0l-0.1-8.5c0-0.5,0.3-0.9,0.7-1c0.4-0.2,0.9-0.1,1.2,0.2
					l4.3,4.2c0.5,0.5,0.5,1.2,0,1.7l-4.2,4.3C169.2,192.8,168.8,193.1,168.5,193.1z M168.9,184.5l0.1,6.1l3-3.1L168.9,184.5z"/>
			</g>
		</g>
	</g>
	<g>
		<rect x="196.2" y="168.2" class="st0" width="38.8" height="38.8"/>
		<g>
			<path d="M215.1,202.8c-8,0-14.7-6.6-14.7-14.7s6.6-14.7,14.7-14.7s14.7,6.6,14.7,14.7C229.7,196.2,223.2,202.8,215.1,202.8z
				 M215.1,175c-7.2,0-13.1,5.8-13.1,13.1c0,7.2,5.8,13.1,13.1,13.1c7.2,0,13.1-5.8,13.1-13.1C228.2,180.8,222.3,175,215.1,175z"/>
		</g>
		<g>
			<path d="M215.1,196.7c-0.6,0-1-0.5-1-1V187c0-0.6,0.5-1,1-1s1,0.5,1,1v8.7C216.1,196.2,215.6,196.7,215.1,196.7z"/>
		</g>
		<g>
			<circle class="st2" cx="215.1" cy="181.8" r="1"/>
			<path d="M215.1,183.1c-0.8,0-1.3-0.6-1.3-1.3c0-0.8,0.6-1.3,1.3-1.3s1.3,0.6,1.3,1.3C216.5,182.6,215.8,183.1,215.1,183.1z
				 M215.1,181c-0.5,0-0.8,0.4-0.8,0.8c0,0.5,0.4,0.8,0.8,0.8c0.5,0,0.8-0.4,0.8-0.8C215.8,181.3,215.5,181,215.1,181z"/>
		</g>
	</g>
	<g>
		<rect x="303.6" y="167.4" class="st0" width="72.8" height="72.8"/>
		<g>
			<g>
				<path class="st3" d="M317.6,233.3v2.4h-1.2v-6.5h2.5c0.7,0,1.3,0.2,1.7,0.6c0.4,0.4,0.7,0.9,0.7,1.5c0,0.7-0.2,1.2-0.6,1.5
					c-0.4,0.4-1,0.5-1.7,0.5H317.6L317.6,233.3z M317.6,232.4h1.3c0.4,0,0.7-0.1,0.9-0.3s0.3-0.5,0.3-0.8c0-0.4-0.1-0.6-0.3-0.9
					c-0.2-0.2-0.5-0.3-0.9-0.3h-1.3V232.4z"/>
				<path class="st3" d="M323.4,234.8h2.9v0.9h-4.1v-6.5h1.2V234.8L323.4,234.8z"/>
				<path class="st3" d="M331,234.1h-2.5l-0.5,1.5h-1.2l2.4-6.5h1l2.4,6.5h-1.2L331,234.1z M328.8,233.3h1.8l-1-2.7L328.8,233.3z"/>
				<path class="st3" d="M334.9,232.3l1.5-3.1h1.3l-2.2,4.1v2.4h-1.1v-2.4l-2.2-4.1h1.3L334.9,232.3z"/>
				<path class="st3" d="M342.8,234.3l1.7-5h1.3l-2.3,6.5h-1l-2.3-6.5h1.3L342.8,234.3z"/>
				<path class="st3" d="M347.7,235.7h-1.2v-6.5h1.2V235.7z"/>
				<path class="st3" d="M349,235.7v-6.5h2c0.6,0,1,0.1,1.5,0.4c0.5,0.3,0.8,0.6,1,1c0.3,0.5,0.4,1,0.4,1.7v0.3
					c0,0.6-0.1,1.2-0.4,1.7s-0.6,0.8-1,1c-0.5,0.3-1,0.4-1.5,0.4L349,235.7L349,235.7L349,235.7z M350.1,230.1v4.7h0.8
					c0.6,0,1-0.2,1.3-0.6c0.3-0.4,0.5-0.9,0.5-1.5v-0.3c0-0.7-0.2-1.3-0.5-1.7s-0.8-0.6-1.3-0.6L350.1,230.1L350.1,230.1
					L350.1,230.1z"/>
				<path class="st3" d="M358.8,232.8h-2.7v2h3.1v0.9h-4.3v-6.5h4.2v0.9H356v1.7h2.7L358.8,232.8L358.8,232.8L358.8,232.8z"/>
				<path class="st3" d="M365.4,232.6c0,0.7-0.1,1.2-0.3,1.7c-0.2,0.5-0.5,0.9-1,1c-0.4,0.3-0.9,0.4-1.5,0.4c-0.5,0-1-0.1-1.3-0.4
					c-0.4-0.3-0.8-0.6-1-1c-0.2-0.5-0.3-1-0.4-1.7v-0.3c0-0.7,0.1-1.2,0.3-1.7c0.2-0.5,0.6-0.9,1-1c0.4-0.3,0.9-0.4,1.3-0.4
					c0.5,0,1,0.1,1.3,0.4c0.4,0.3,0.7,0.6,1,1c0.2,0.5,0.3,1,0.3,1.7v0.3H365.4z M364.2,232.3c0-0.7-0.1-1.3-0.4-1.7
					s-0.7-0.6-1.2-0.6s-0.9,0.2-1.2,0.6c-0.3,0.4-0.4,0.9-0.4,1.7v0.4c0,0.7,0.1,1.3,0.4,1.7s0.7,0.6,1.2,0.6s0.9-0.2,1.2-0.6
					c0.3-0.3,0.4-1,0.4-1.7V232.3z"/>
			</g>
			<circle class="st4" cx="340" cy="198.8" r="26.9"/>
			<g>
				<g>
					<path d="M340,221.4c-12.4,0-22.6-10.1-22.6-22.6c0-12.4,10.1-22.6,22.6-22.6s22.6,10.1,22.6,22.6
						C362.7,211.4,352.5,221.4,340,221.4z M340,179.2c-10.9,0-19.6,8.8-19.6,19.6c0,10.9,8.8,19.6,19.6,19.6
						c10.8,0,19.6-8.8,19.6-19.6C359.7,188,350.9,179.2,340,179.2z"/>
				</g>
				<g>
					<path d="M336.6,207.7c-0.2,0-0.5,0-0.7-0.1c-0.8-0.3-1.3-1-1.3-1.7l0,0l-0.2-13.7c0-0.8,0.5-1.5,1.2-1.8s1.3-0.2,2,0.3
						l10.7,6.7c0.8,0.9,0.8,2.2,0.1,3l-0.1,0.1l-10.3,6.9C337.5,207.5,337.1,207.7,336.6,207.7z M337.4,193.8l0.2,10.1l7.8-5.2
						L337.4,193.8z"/>
				</g>
				<g>
					<path d="M355.3,195.4c-0.6,0-1.2-0.4-1.3-1c-1.5-4.5-5.2-8-9.7-9.4c-0.8-0.2-1.2-1-1-1.8s1-1.2,1.8-1
						c5.4,1.7,9.7,5.9,11.7,11.2c0.3,0.8-0.1,1.5-0.9,1.8C355.5,195.4,355.5,195.4,355.3,195.4z"/>
				</g>
			</g>
		</g>
	</g>
	<g>
		<rect x="13.6" y="57.5" class="st0" width="29.1" height="29.1"/>
		<g>
			<g>
				<path d="M28.3,82.3c-0.3,0-0.6-0.3-0.6-0.6V63c0-0.3,0.3-0.6,0.6-0.6c0.3,0,0.6,0.3,0.6,0.6v18.7C28.8,82,28.5,82.3,28.3,82.3z"
					/>
			</g>
			<g>
				<path d="M37,73H19.5c-0.3,0-0.6-0.3-0.6-0.6c0-0.3,0.3-0.6,0.6-0.6H37c0.3,0,0.6,0.3,0.6,0.6C37.5,72.7,37.3,73,37,73z"/>
			</g>
		</g>
	</g>
	<g>
		<rect x="49.6" y="57.5" class="st0" width="29.1" height="29.1"/>
		<g>
			<path d="M73.3,72.7H55.8c-0.3,0-0.6-0.3-0.6-0.6s0.3-0.6,0.6-0.6h17.5c0.3,0,0.6,0.3,0.6,0.6C73.9,72.4,73.6,72.7,73.3,72.7z"/>
		</g>
	</g>
</g>
<g>
	<g>
		<path class="st5" d="M223,35.4h-12.5c-0.9,0-1.7-0.8-1.5-1.7l1.3-11.4h12.9l1.3,11.4C224.7,34.6,223.9,35.4,223,35.4z"/>
	</g>
	<path class="st5" d="M219.8,23.9v-2.8c0-1.7-1.5-3.2-3.2-3.2l0,0c-1.7,0-3.2,1.5-3.2,3.2v2.8"/>
</g>
<g>
	<g>
		<path class="st5" d="M250.2,35.4h-16.8c-1.3,0-2.2-1-2-2.3l1.7-15.2h17.3l1.7,15.2C252.4,34.3,251.4,35.4,250.2,35.4z"/>
	</g>
	<path class="st5" d="M245.9,19.9v-3.8c0-2.3-2-4.3-4.3-4.3l0,0c-2.3,0-4.3,2-4.3,4.3v3.8"/>
</g>
<path d="M419.1,77.3c-1.5-1.5-3.3-2.4-5.2-2.8c2.3-0.9,4-3.3,4-6.2c0-3.6-2.8-6.6-6-6.6c-3.2,0-6,2.9-6,6.6c0,2.9,1.8,5.4,4,6.2
	c-2.1,0.4-3.8,1.3-5.2,2.8c-1.9,1.9-3,4.5-3,7.2h0.6c0-5.4,4.3-9.6,9.6-9.6s9.6,4.3,9.6,9.6h0.6C422.1,81.8,421,79.2,419.1,77.3z
	 M406.7,68.4c0-3.3,2.3-5.9,5.3-5.9c3,0,5.3,2.8,5.3,5.9c0,3.3-2.3,5.9-5.3,5.9C409,74.3,406.7,71.7,406.7,68.4z"/>
<g>
	<path d="M451.3,67.2c0-4.8-4-8.8-8.8-8.8c-2.3,0-4.5,1-6.3,2.7c-1.7,1.7-2.7,3.9-2.7,6.3c-0.1,5,4.4,11,7,14.7
		c0.5,0.7,0.9,1.3,1.3,1.7c0.1,0.2,0.4,0.3,0.6,0.3c0.3,0,0.5-0.1,0.6-0.3c0.4-0.5,0.8-1,1.3-1.7C446.9,78.4,451.4,72.4,451.3,67.2z
		 M443.4,81.3c-0.4,0.5-0.8,1-1,1.5c-0.3-0.4-0.7-0.9-1-1.5c-2.7-3.5-6.9-9.3-6.8-14.1l0,0c0-2.2,0.8-4.1,2.3-5.5
		c1.5-1.5,3.5-2.3,5.5-2.3c4.4,0,7.9,3.5,7.9,7.9l0,0C450.4,72,446.1,77.8,443.4,81.3z"/>
	<path d="M442.4,61.8c-2.9,0-5.3,2.3-5.3,5.3c0,2.9,2.3,5.3,5.3,5.3c2.9,0,5.3-2.3,5.3-5.3C447.7,64.1,445.4,61.8,442.4,61.8z
		 M442.4,71.3c-2.3,0-4.3-2-4.3-4.3s2-4.3,4.3-4.3s4.3,2,4.3,4.3C446.7,69.5,444.8,71.3,442.4,71.3z"/>
</g>
<g>
	<g>
		<g>
			<g>
				<g>
					<g>
						<g>
							<g>
								<g>
									<g>
										<defs>
											<rect id="SVGID_1_" x="444.3" y="74.2" width="19.2" height="19.2"/>
										</defs>
										<clipPath id="SVGID_2_">
											<use xlink:href="#SVGID_1_"  style="overflow:visible;"/>
										</clipPath>
										<path class="st6" d="M451.3,86.9h-15.4c-1.7,0-3.2-1.5-3.2-3.2l0,0c0-1.7,1.5-3.2,3.2-3.2h15.4c1.7,0,3.2,1.5,3.2,3.2l0,0
											C454.4,85.5,453.1,86.9,451.3,86.9z"/>
									</g>
								</g>
							</g>
						</g>
					</g>
				</g>
			</g>
		</g>
	</g>
</g>
<g>
	<g>
		<g>
			<g>
				<g>
					<g>
						<g>
							<g>
								<g>
									<g>
										<defs>
											<rect id="SVGID_3_" x="428.1" y="80.4" width="17.3" height="19.2"/>
										</defs>
										<clipPath id="SVGID_4_">
											<use xlink:href="#SVGID_3_"  style="overflow:visible;"/>
										</clipPath>
										<path class="st7" d="M440.4,93.2h15.4c1.7,0,3.2-1.5,3.2-3.2l0,0c0-1.7-1.5-3.2-3.2-3.2h-15.4c-1.7,0-3.2,1.5-3.2,3.2l0,0
											C437.2,91.9,438.7,93.2,440.4,93.2z"/>
									</g>
								</g>
							</g>
						</g>
					</g>
				</g>
			</g>
		</g>
	</g>
</g>
<g>
	<path class="st8" d="M283,41h-14.7c-1.2,0-2-1-2-2V19c0-1.2,1-2,2-2H283c1.2,0,2,1,2,2v19.9C285.2,40.1,284.2,41,283,41z"/>
	<g>
		<g>
			<g>
				<g>
					<g>
						<g>
							<g>
								<g>
									<g>
										<g>
											<defs>
												<polygon id="SVGID_5_" points="275.8,41.9 288.1,44.8 292.9,24.1 286,21.3 												"/>
											</defs>
											<clipPath id="SVGID_6_">
												<use xlink:href="#SVGID_5_"  style="overflow:visible;"/>
											</clipPath>
											<path class="st9" d="M274.5,40.6l10.8,2.5c1,0.3,2.2-0.4,2.4-1.5l3.5-14.9c0.3-1-0.4-2.2-1.5-2.4l-10.8-2.5
												c-1-0.3-2.2,0.4-2.4,1.5L273,38.2C272.6,39.3,273.3,40.4,274.5,40.6z"/>
										</g>
									</g>
								</g>
							</g>
						</g>
					</g>
				</g>
			</g>
		</g>
	</g>
	<g>
		<g>
			<g>
				<g>
					<g>
						<g>
							<g>
								<g>
									<g>
										<g>
											<defs>
												<polygon id="SVGID_7_" points="275.5,41.9 263.2,44.8 258.4,24.1 265.4,21.3 												"/>
											</defs>
											<clipPath id="SVGID_8_">
												<use xlink:href="#SVGID_7_"  style="overflow:visible;"/>
											</clipPath>
											<path class="st10" d="M276.8,40.6L266,43.1c-1,0.3-2.2-0.4-2.4-1.5l-3.5-14.9c-0.3-1,0.4-2.2,1.5-2.4l10.8-2.5
												c1-0.3,2.2,0.4,2.4,1.5l3.5,14.9C278.6,39.3,278,40.4,276.8,40.6z"/>
										</g>
									</g>
								</g>
							</g>
						</g>
					</g>
				</g>
			</g>
		</g>
	</g>
</g>
<g>
	<g>
		<g>
			<g>
				<path class="st11" d="M-291.4,112.9h-232.5c-0.8,0-1.7,0-2.5,0c-0.7,0-1.3,0-2.2,0c-1.5,0-3.1,0.1-4.7,0.3
					c-1.5,0.3-3,0.7-4.3,1.5c-1.3,0.7-2.7,1.7-3.6,2.7c-1.2,1.2-2,2.3-2.7,3.8c-0.7,1.3-1.2,2.8-1.5,4.3s-0.3,3.1-0.3,4.7
					c0,0.7,0,1.5,0,2.2c0,0.8,0,1.7,0,2.5v48.3c0,0.8,0,1.7,0,2.5c0,0.7,0,1.3,0,2.2c0,1.5,0.1,3.1,0.3,4.7c0.3,1.5,0.7,3,1.5,4.3
					c0.7,1.3,1.7,2.7,2.7,3.6c1.2,1.2,2.3,2,3.6,2.7s2.8,1.2,4.3,1.5s3.1,0.3,4.7,0.3c0.7,0,1.5,0,2.2,0c0.8,0,1.7,0,2.5,0h232.4
					c0.8,0,1.7,0,2.5,0c0.7,0,1.5,0,2.2,0c1.5,0,3.1-0.1,4.7-0.3c1.5-0.3,3-0.7,4.5-1.5c1.3-0.7,2.7-1.7,3.6-2.7
					c1.2-1.2,2-2.3,2.7-3.6s1.2-2.8,1.5-4.3s0.3-3.1,0.5-4.7c0-0.7,0-1.3,0-2.2c0-0.8,0-1.7,0-2.5v-48.3c0-0.8,0-1.7,0-2.5
					c0-0.7,0-1.5,0-2.2c0-1.5-0.1-3.1-0.5-4.7c-0.3-1.5-0.7-3-1.5-4.3c-0.7-1.3-1.7-2.7-2.7-3.8c-1.2-1.2-2.3-2-3.6-2.7
					c-1.5-0.7-2.8-1.2-4.5-1.5c-1.5-0.3-3-0.3-4.7-0.3c-0.7,0-1.5,0-2.2,0C-289.7,112.9-290.5,112.9-291.4,112.9L-291.4,112.9z"/>
				<path d="M-526.4,203.3c-0.7,0-1.3,0-2.2,0c-1.3,0-2.8-0.1-4.3-0.3c-1.3-0.3-2.7-0.7-3.8-1.3c-1.2-0.7-2.3-1.3-3.1-2.3
					c-1-1-1.7-2-2.3-3.1c-0.7-1.2-1-2.5-1.3-3.8c-0.3-1.5-0.3-3.1-0.3-4.3c0-0.5,0-2.2,0-2.2v-53.4c0,0,0-1.7,0-2
					c0-1.2,0.1-2.8,0.3-4.3c0.1-1.5,0.7-2.7,1.3-3.8c0.7-1.2,1.3-2.3,2.3-3.1c1-1,2-1.8,3.1-2.3c1.2-0.7,2.5-1,3.8-1.3
					c1.5-0.3,3.1-0.3,4.3-0.3h2.2h237.3h2.2c1.2,0,2.8,0.1,4.3,0.3c1.3,0.1,2.7,0.7,3.8,1.3c1.2,0.6,2.3,1.3,3.1,2.3
					c1,1,1.7,2,2.3,3.4c0.7,1.2,1,2.5,1.2,3.8c0.3,1.5,0.3,3,0.3,4.3c0,0.7,0,1.3,0,2c0,0.8,0,1.7,0,2.5v48.3c0,0.8,0,1.7,0,2.5
					s0,1.5,0,2.2c0,1.3-0.1,2.8-0.3,4.3c-0.1,1.5-0.7,2.7-1.3,3.8c-0.7,1.2-1.5,2.3-2.3,3.1c-1,1-2,1.8-3.1,2.3
					c-1.2,0.7-2.5,1-3.8,1.3c-1.5,0.3-3,0.3-4.3,0.3c-0.7,0-1.3,0-2,0h-2.5L-526.4,203.3z"/>
			</g>
		</g>
		<g id="XMLID_20_">
			<g id="XMLID_22_">
				<g id="XMLID_23_">
					<path id="XMLID_25_" class="st12" d="M-488.7,159.8c0-6.3,5.2-9.5,5.5-9.6c-3-4.3-7.6-5-9.2-5c-3.8-0.3-7.6,2.3-9.6,2.3
						s-5-2.3-8.3-2.2c-4.1,0-8.2,2.5-10.3,6.3c-4.5,7.8-1.2,19.1,3.1,25.4c2.2,3,4.7,6.5,8,6.3c3.1-0.1,4.3-2,8.3-2c3.8,0,5,2,8.3,2
						c3.5,0,5.7-3.1,7.6-6.1c2.5-3.5,3.5-7,3.5-7.1C-482,169.9-488.7,167.4-488.7,159.8z"/>
					<path id="XMLID_24_" class="st12" d="M-494.9,141.1c1.7-2.2,2.8-5.2,2.5-8.2c-2.5,0.1-5.7,1.7-7.5,3.8c-1.7,1.8-3,4.8-2.7,7.8
						C-499.6,144.9-496.8,143.3-494.9,141.1z"/>
				</g>
			</g>
			<g>
				<path class="st12" d="M-448.1,175.5h-11l-2.7,7.8h-4.7l10.3-28.8h4.8l10.3,28.8h-4.7L-448.1,175.5z M-457.9,172.1h8.7l-4.3-12.6
					h-0.1L-457.9,172.1z"/>
				<path class="st12" d="M-418.5,172.9c0,6.5-3.5,10.6-8.8,10.6c-3,0-5.3-1.3-6.6-3.6h-0.1v10.3h-4.3v-27.7h4.1v3.5l0,0
					c1.2-2.3,3.6-3.6,6.6-3.6C-422,162.3-418.5,166.4-418.5,172.9z M-422.8,172.9c0-4.1-2.2-7-5.5-7s-5.5,2.8-5.5,7s2.2,7,5.5,7
					C-425,180-422.8,177.2-422.8,172.9z"/>
				<path class="st12" d="M-395.4,172.9c0,6.5-3.5,10.6-8.8,10.6c-3,0-5.3-1.3-6.6-3.6h-0.1v10.3h-4.3v-27.7h4.1v3.5l0,0
					c1.2-2.3,3.6-3.6,6.6-3.6C-398.9,162.3-395.4,166.4-395.4,172.9z M-399.9,172.9c0-4.1-2.2-7-5.5-7s-5.5,2.8-5.5,7s2.2,7,5.5,7
					C-402,180-399.9,177.2-399.9,172.9z"/>
				<path class="st12" d="M-380.3,175.4c0.3,2.8,3.1,4.7,6.8,4.7s6.1-1.8,6.1-4.5c0-2.2-1.5-3.5-5.3-4.5l-3.6-0.8
					c-5.3-1.3-7.6-3.6-7.6-7.8c0-5,4.3-8.3,10.5-8.3c6,0,10.1,3.4,10.3,8.3h-4.3c-0.3-2.8-2.7-4.7-6.1-4.7c-3.5,0-5.8,1.8-5.8,4.3
					c0,2,1.5,3.1,5.2,4.1l3.1,0.8c5.8,1.3,8.3,3.8,8.3,8c0,5.3-4.3,8.8-11.1,8.8c-6.3,0-10.6-3.4-11-8.5L-380.3,175.4L-380.3,175.4z
					"/>
				<path class="st12" d="M-353.3,157.6v5h4v3.4h-4v11.5c0,1.8,0.8,2.7,2.5,2.7c0.5,0,1.2,0,1.3-0.1v3.4c-0.5,0.1-1.5,0.1-2.3,0.1
					c-4.1,0-5.8-1.7-5.8-5.7V166h-3v-3.4h3v-5H-353.3L-353.3,157.6L-353.3,157.6L-353.3,157.6z"/>
				<path class="st12" d="M-347.1,172.9c0-6.6,3.8-10.6,10-10.6c6,0,10,4.1,10,10.6c0,6.6-3.8,10.6-10,10.6
					C-343.2,183.7-347.1,179.5-347.1,172.9z M-331.6,172.9c0-4.5-2-7.1-5.5-7.1s-5.5,2.7-5.5,7.1c0,4.5,2,7.1,5.5,7.1
					S-331.6,177.5-331.6,172.9z"/>
				<path class="st12" d="M-323.6,162.4h4.1v3.5h0.1c0.7-2.3,2.5-3.8,5-3.8c0.7,0,1.2,0,1.5,0.1v4c-0.3-0.1-1.2-0.3-2-0.3
					c-2.8,0-4.5,1.8-4.5,4.8v12.5h-4.3v-20.7h0.1L-323.6,162.4L-323.6,162.4z"/>
				<path class="st12" d="M-293.2,177.2c-0.5,3.8-4.3,6.5-8.9,6.5c-6.1,0-9.8-4.1-9.8-10.6s3.8-10.8,9.6-10.8c5.8,0,9.5,4,9.5,10.3
					v1.5h-14.8v0.3c0,3.6,2.3,6,5.7,6c2.3,0,4.3-1.2,4.8-3h4L-293.2,177.2L-293.2,177.2z M-307.7,171.1h10.5
					c-0.1-3.1-2.2-5.3-5.2-5.3C-305.3,165.8-307.5,167.9-307.7,171.1z"/>
			</g>
		</g>
	</g>
	<g id="XMLID_1_">
		<g>
			<path class="st12" d="M-458.5,133.1c4.1,0,6.5,2.5,6.5,6.8s-2.3,7-6.5,7h-5v-13.8H-458.5L-458.5,133.1z M-461.4,144.9h2.7
				c2.8,0,4.5-1.8,4.5-5c0-3.1-1.7-5-4.5-5h-2.7V144.9z"/>
			<path class="st12" d="M-449.6,141.7c0-3.4,1.8-5.3,5-5.3c3,0,4.8,2,4.8,5.3s-1.8,5.5-4.8,5.5
				C-447.8,147.1-449.6,145.2-449.6,141.7z M-441.9,141.7c0-2.3-1-3.6-2.8-3.6s-2.8,1.3-2.8,3.6s1,3.6,2.8,3.6
				C-443,145.3-441.9,144-441.9,141.7z"/>
			<path class="st12" d="M-426.7,147h-2.2l-2.2-7.6h-0.1l-2.2,7.6h-2.2l-2.8-10.5h2.2l1.8,8h0.1l2.2-8h2l2.2,8h0.1l1.8-8h2
				L-426.7,147z"/>
			<path class="st12" d="M-421.5,136.5h2v1.7h0.1c0.5-1.2,1.5-1.8,3.1-1.8c2.3,0,3.6,1.3,3.6,3.8v6.8h-2v-6.1c0-1.7-0.7-2.5-2.3-2.5
				c-1.6,0-2.5,1-2.5,2.7v6.1h-2L-421.5,136.5L-421.5,136.5L-421.5,136.5z"/>
			<path class="st12" d="M-409.4,132.5h2V147h-2V132.5z"/>
			<path class="st12" d="M-404.4,141.7c0-3.4,1.8-5.3,5-5.3c3,0,5,2,5,5.3s-1.8,5.5-5,5.5C-402.6,147.1-404.4,145.2-404.4,141.7z
				 M-396.7,141.7c0-2.3-1-3.6-2.8-3.6s-2.8,1.3-2.8,3.6s1,3.6,2.8,3.6C-397.8,145.3-396.7,144-396.7,141.7z"/>
			<path class="st12" d="M-392.5,144c0-1.8,1.3-3,3.8-3.1l2.8-0.1V140c0-1.2-0.7-1.7-2.2-1.7c-1.2,0-2,0.5-2.2,1.2h-2
				c0.1-1.8,1.8-3,4.3-3c2.7,0,4.1,1.3,4.1,3.5v7.1h-2v-1.5l0,0c-0.7,1-1.8,1.7-3.1,1.7C-391.1,147.1-392.5,145.8-392.5,144z
				 M-385.8,143.1v-1l-2.5,0.1c-1.5,0.1-2.2,0.7-2.2,1.5c0,1,0.8,1.5,2,1.5C-386.9,145.3-385.8,144.3-385.8,143.1z"/>
			<path class="st12" d="M-381.1,141.7c0-3.4,1.7-5.3,4.3-5.3c1.5,0,2.7,0.7,3.1,1.8h0.1v-5.7h2V147h-2v-1.7h-0.1
				c-0.7,1.2-1.8,1.8-3.4,1.8C-379.5,147.1-381.1,144.9-381.1,141.7z M-379,141.7c0,2.2,1,3.5,2.8,3.5c1.7,0,2.8-1.3,2.8-3.5
				s-1.2-3.5-2.8-3.5C-378,138.2-379,139.5-379,141.7z"/>
			<path class="st12" d="M-362.8,141.7c0-3.4,1.8-5.3,5-5.3c3,0,4.8,2,4.8,5.3s-1.8,5.5-4.8,5.5C-361,147.1-362.8,145.2-362.8,141.7
				z M-355.2,141.7c0-2.3-1-3.6-2.8-3.6s-2.8,1.3-2.8,3.6s1,3.6,2.8,3.6S-355.2,144-355.2,141.7z"/>
			<path class="st12" d="M-350.2,136.5h2v1.7h0.1c0.5-1.2,1.5-1.8,3.1-1.8c2.3,0,3.6,1.3,3.6,3.8v6.8h-2v-6.1c0-1.7-0.7-2.5-2.3-2.5
				c-1.5,0-2.5,1-2.5,2.7v6.1h-2L-350.2,136.5L-350.2,136.5L-350.2,136.5z"/>
			<path class="st12" d="M-329.8,133.8v2.7h2.3v1.7h-2.3v5.3c0,1.2,0.5,1.5,1.5,1.5c0.3,0,0.5,0,0.8,0v1.7c-0.3,0-0.7,0.1-1.2,0.1
				c-2.3,0-3.1-0.8-3.1-2.8v-5.8h-1.7v-1.7h1.7v-2.7H-329.8L-329.8,133.8z"/>
			<path class="st12" d="M-324.8,132.5h2v5.7h0.1c0.5-1.2,1.7-1.8,3.1-1.8c2.2,0,3.6,1.3,3.6,3.8v6.6h-2v-6.1c0-1.7-0.8-2.5-2.2-2.5
				c-1.7,0-2.7,1-2.7,2.7v6.1h-2.2L-324.8,132.5L-324.8,132.5z"/>
			<path class="st12" d="M-303.8,144.1c-0.5,1.8-2.2,3-4.5,3c-3,0-4.8-2-4.8-5.3s1.8-5.5,4.8-5.5c2.8,0,4.7,2,4.7,5.3v0.7h-7.4v0.1
				c0,1.8,1.2,3,2.8,3c1.2,0,2.2-0.5,2.5-1.3H-303.8z M-311.1,140.6h5.3c0-1.7-1-2.7-2.5-2.7C-310,138-311,139.2-311.1,140.6z"/>
		</g>
	</g>
</g>
<g>
	<g>
		<g>
			<g>
				<path class="st11" d="M-383.6,295.4h-341.6c-1.2,0-2.4,0-3.7,0c-1,0-2,0-3.2,0c-2.2,0-4.6,0.2-6.8,0.5c-2.2,0.5-4.4,1-6.3,2.2
					c-2,1-3.9,2.4-5.4,3.9c-1.7,1.7-2.9,3.4-3.9,5.6c-1,2-1.7,4.2-2.2,6.3s-0.5,4.6-0.5,6.8c0,1,0,2.2,0,3.2c0,1.2,0,2.4,0,3.7v71
					c0,1.2,0,2.4,0,3.7c0,1,0,2,0,3.2c0,2.2,0.2,4.6,0.5,6.8c0.5,2.2,1,4.4,2.2,6.3c1,2,2.4,3.9,3.9,5.4c1.7,1.7,3.4,2.9,5.4,3.9
					s4.2,1.7,6.3,2.2c2.2,0.5,4.6,0.5,6.8,0.5c1,0,2.2,0,3.2,0c1.2,0,2.4,0,3.7,0h341.3c1.2,0,2.4,0,3.7,0c1,0,2.2,0,3.2,0
					c2.2,0,4.6-0.2,6.8-0.5c2.2-0.5,4.4-1,6.6-2.2c2-1,3.9-2.4,5.4-3.9c1.7-1.7,2.9-3.4,3.9-5.4s1.7-4.2,2.2-6.3s0.5-4.6,0.7-6.8
					c0-1,0-2,0-3.2s0-2.4,0-3.7v-71c0-1.2,0-2.4,0-3.7c0-1,0-2.2,0-3.2c0-2.2-0.2-4.6-0.7-6.8s-1-4.4-2.2-6.3c-1-2-2.4-3.9-3.9-5.6
					c-1.7-1.7-3.4-2.9-5.4-3.9c-2.2-1-4.2-1.7-6.6-2.2c-2.2-0.5-4.4-0.5-6.8-0.5c-1,0-2.2,0-3.2,0
					C-381.1,295.4-382.4,295.4-383.6,295.4L-383.6,295.4z"/>
				<path d="M-728.8,428.3c-1,0-2,0-3.2,0c-2,0-4.2-0.2-6.3-0.5c-2-0.5-3.9-1-5.6-2c-1.7-1-3.4-2-4.6-3.4c-1.5-1.5-2.4-2.9-3.4-4.6
					s-1.5-3.7-2-5.6c-0.5-2.2-0.5-4.6-0.5-6.3c0-0.7,0-3.2,0-3.2v-78.4c0,0,0-2.4,0-2.9c0-1.7,0.2-4.2,0.5-6.3c0.3-2.1,1-3.9,2-5.6
					s2-3.4,3.4-4.6c1.5-1.5,2.9-2.7,4.6-3.4c1.7-1,3.7-1.5,5.6-2c2.2-0.5,4.6-0.5,6.3-0.5h3.2h348.6h3.2c1.7,0,4.2,0.2,6.3,0.5
					c2,0.2,3.9,1,5.6,2s3.4,2,4.6,3.4c1.5,1.5,2.4,2.9,3.4,4.9c1,1.7,1.5,3.7,1.7,5.6c0.5,2.2,0.5,4.4,0.5,6.3c0,1,0,2,0,2.9
					c0,1.2,0,2.4,0,3.7v71c0,1.2,0,2.4,0,3.7s0,2.2,0,3.2c0,2-0.2,4.2-0.5,6.3c-0.2,2.2-1,3.9-2,5.6s-2.2,3.4-3.4,4.6
					c-1.5,1.5-2.9,2.7-4.6,3.4c-1.7,1-3.7,1.5-5.6,2c-2.2,0.5-4.4,0.5-6.3,0.5c-1,0-2,0-2.9,0h-3.7L-728.8,428.3z"/>
			</g>
		</g>
		<g id="XMLID_11_">
			<g id="XMLID_12_">
				<g id="XMLID_13_">
					<path id="XMLID_15_" class="st12" d="M-673.3,364.3c0-9.3,7.6-13.9,8.1-14.2c-4.4-6.3-11.2-7.3-13.4-7.3
						c-5.6-0.5-11.2,3.4-14.2,3.4c-2.9,0-7.3-3.4-12.2-3.2c-6.1,0-12,3.7-15.1,9.3c-6.6,11.5-1.7,28.1,4.6,37.4
						c3.2,4.4,6.8,9.5,11.7,9.3c4.6-0.2,6.3-2.9,12.2-2.9c5.6,0,7.3,2.9,12.2,2.9c5.1,0,8.3-4.6,11.2-9c3.7-5.1,5.1-10.3,5.1-10.5
						C-663.7,379.2-673.3,375.5-673.3,364.3z"/>
					<path id="XMLID_14_" class="st12" d="M-682.7,337c2.4-3.2,4.2-7.6,3.7-12c-3.7,0.2-8.3,2.4-11,5.6c-2.4,2.7-4.4,7.1-3.9,11.5
						C-689.4,342.6-685.3,340.1-682.7,337z"/>
				</g>
			</g>
			<g>
				<path class="st12" d="M-613.8,387.5h-16.1l-3.9,11.5h-6.8l15.1-42.2h7.1l15.1,42.2h-6.8L-613.8,387.5z M-628.2,382.4h12.7
					l-6.3-18.6h-0.2L-628.2,382.4z"/>
				<path class="st12" d="M-570.3,383.6c0,9.5-5.1,15.6-12.9,15.6c-4.4,0-7.8-2-9.8-5.4h-0.2V409h-6.3v-40.8h6.1v5.1l0,0
					c1.7-3.4,5.4-5.4,9.8-5.4C-575.5,368-570.3,374.1-570.3,383.6z M-576.8,383.6c0-6.1-3.2-10.3-8.1-10.3c-4.9,0-8.1,4.2-8.1,10.3
					s3.2,10.3,8.1,10.3C-579.8,394.1-576.8,389.9-576.8,383.6z"/>
				<path class="st12" d="M-536.5,383.6c0,9.5-5.1,15.6-12.9,15.6c-4.4,0-7.8-2-9.8-5.4h-0.2V409h-6.3v-40.8h6.1v5.1l0,0
					c1.7-3.4,5.4-5.4,9.8-5.4C-541.6,368-536.5,374.1-536.5,383.6z M-543.1,383.6c0-6.1-3.2-10.3-8.1-10.3s-8.1,4.2-8.1,10.3
					s3.2,10.3,8.1,10.3C-546.2,394.1-543.1,389.9-543.1,383.6z"/>
				<path class="st12" d="M-514.2,387.2c0.5,4.2,4.6,6.8,10,6.8s9-2.7,9-6.6c0-3.2-2.2-5.1-7.8-6.6l-5.4-1.2
					c-7.8-2-11.2-5.4-11.2-11.5c0-7.3,6.3-12.2,15.4-12.2c8.8,0,14.9,4.9,15.1,12.2h-6.3c-0.5-4.2-3.9-6.8-9-6.8s-8.5,2.7-8.5,6.3
					c0,2.9,2.2,4.6,7.6,6.1l4.6,1.2c8.5,2,12.2,5.6,12.2,11.7c0,7.8-6.3,12.9-16.4,12.9c-9.3,0-15.6-4.9-16.1-12.5L-514.2,387.2
					L-514.2,387.2z"/>
				<path class="st12" d="M-474.6,361.1v7.3h5.9v4.9h-5.9v16.8c0,2.7,1.2,3.9,3.7,3.9c0.7,0,1.7,0,2-0.2v4.9
					c-0.7,0.2-2.2,0.2-3.4,0.2c-6.1,0-8.5-2.4-8.5-8.3V373h-4.4v-4.9h4.4v-7.3h6.3v0.3H-474.6z"/>
				<path class="st12" d="M-465.4,383.6c0-9.8,5.6-15.6,14.6-15.6c8.8,0,14.6,6.1,14.6,15.6c0,9.8-5.6,15.6-14.6,15.6
					C-459.8,399.5-465.4,393.3-465.4,383.6z M-442.6,383.6c0-6.6-2.9-10.5-8.1-10.5c-5.1,0-8.1,3.9-8.1,10.5s2.9,10.5,8.1,10.5
					C-445.6,394.1-442.6,390.4-442.6,383.6z"/>
				<path class="st12" d="M-431,368.2h6.1v5.1h0.2c1-3.4,3.7-5.6,7.3-5.6c1,0,1.7,0,2.2,0.2v5.9c-0.5-0.2-1.7-0.5-2.9-0.5
					c-4.2,0-6.6,2.7-6.6,7.1v18.3h-6.3L-431,368.2L-431,368.2z"/>
				<path class="st12" d="M-386.2,389.9c-0.7,5.6-6.3,9.5-13.2,9.5c-9,0-14.4-6.1-14.4-15.6s5.6-15.9,14.2-15.9s13.9,5.9,13.9,15.1
					v2.2h-21.7v0.5c0,5.4,3.4,8.8,8.3,8.8c3.4,0,6.3-1.7,7.1-4.4h5.9L-386.2,389.9L-386.2,389.9z M-407.6,380.9h15.4
					c-0.2-4.6-3.2-7.8-7.6-7.8C-404.1,373.1-407.2,376.3-407.6,380.9z"/>
			</g>
		</g>
	</g>
	<g id="XMLID_10_">
		<g>
			<path class="st12" d="M-629.2,325.2c6.1,0,9.5,3.7,9.5,10s-3.4,10.3-9.5,10.3h-7.3v-20.3H-629.2L-629.2,325.2z M-633.3,342.6h3.9
				c4.2,0,6.6-2.7,6.6-7.3c0-4.6-2.4-7.3-6.6-7.3h-3.9V342.6z"/>
			<path class="st12" d="M-616.1,337.7c0-4.9,2.7-7.8,7.3-7.8c4.4,0,7.1,2.9,7.1,7.8s-2.7,8.1-7.1,8.1
				C-613.3,345.7-616.1,342.8-616.1,337.7z M-604.8,337.7c0-3.4-1.5-5.4-4.2-5.4s-4.2,2-4.2,5.4s1.5,5.4,4.2,5.4
				S-604.8,341.1-604.8,337.7z"/>
			<path class="st12" d="M-582.3,345.5h-3.2l-3.2-11.2h-0.2l-3.2,11.2h-3.2l-4.2-15.4h3.2l2.7,11.7h0.2l3.2-11.7h2.9l3.2,11.7h0.2
				l2.7-11.7h2.9L-582.3,345.5z"/>
			<path class="st12" d="M-574.8,330.1h2.9v2.4h0.2c0.7-1.7,2.2-2.7,4.6-2.7c3.4,0,5.4,2,5.4,5.6v10h-2.9v-9c0-2.4-1-3.7-3.4-3.7
				s-3.7,1.5-3.7,3.9v9h-2.9V330h-0.2L-574.8,330.1L-574.8,330.1z"/>
			<path class="st12" d="M-557,324.3h2.9v21.2h-2.9V324.3z"/>
			<path class="st12" d="M-549.7,337.7c0-4.9,2.7-7.8,7.3-7.8c4.4,0,7.3,2.9,7.3,7.8s-2.7,8.1-7.3,8.1S-549.7,342.8-549.7,337.7z
				 M-538.3,337.7c0-3.4-1.5-5.4-4.2-5.4s-4.2,2-4.2,5.4s1.5,5.4,4.2,5.4S-538.3,341.1-538.3,337.7z"/>
			<path class="st12" d="M-532.1,341.1c0-2.7,2-4.4,5.6-4.6l4.2-0.2V335c0-1.7-1-2.4-3.2-2.4c-1.7,0-2.9,0.7-3.2,1.7h-2.9
				c0.2-2.7,2.7-4.4,6.3-4.4c3.9,0,6.1,2,6.1,5.1v10.5h-2.9v-2.2h-0.2c-1,1.5-2.7,2.4-4.6,2.4C-530.1,345.7-532.1,343.8-532.1,341.1
				z M-522.2,339.9v-1.5l-3.7,0.2c-2.2,0.2-3.2,1-3.2,2.2c0,1.5,1.2,2.2,2.9,2.2C-524,343.1-522.2,341.6-522.2,339.9z"/>
			<path class="st12" d="M-515.5,337.7c0-4.9,2.4-7.8,6.3-7.8c2.2,0,3.9,1,4.6,2.7h0.2v-8.3h2.9v21.2h-2.9v-2.4h-0.2
				c-1,1.7-2.7,2.7-4.9,2.7C-513,345.7-515.5,342.6-515.5,337.7z M-512.2,337.7c0,3.2,1.5,5.1,4.2,5.1c2.4,0,4.2-2,4.2-5.1
				c0-3.2-1.7-5.1-4.2-5.1C-510.8,332.6-512.2,334.5-512.2,337.7z"/>
			<path class="st12" d="M-488.6,337.7c0-4.9,2.7-7.8,7.3-7.8c4.4,0,7.1,2.9,7.1,7.8s-2.7,8.1-7.1,8.1
				C-485.9,345.7-488.6,342.8-488.6,337.7z M-477.4,337.7c0-3.4-1.5-5.4-4.2-5.4s-4.2,2-4.2,5.4s1.5,5.4,4.2,5.4
				S-477.4,341.1-477.4,337.7z"/>
			<path class="st12" d="M-470.1,330.1h2.9v2.4h0.2c0.7-1.7,2.2-2.7,4.6-2.7c3.4,0,5.4,2,5.4,5.6v10h-2.9v-9c0-2.4-1-3.7-3.4-3.7
				c-2.2,0-3.7,1.5-3.7,3.9v9h-2.9V330h-0.2V330.1z"/>
			<path class="st12" d="M-440,326.2v3.9h3.4v2.4h-3.4v7.8c0,1.7,0.7,2.2,2.2,2.2c0.5,0,0.7,0,1.2,0v2.4c-0.5,0-1,0.2-1.7,0.2
				c-3.4,0-4.6-1.2-4.6-4.2v-8.5h-2.4V330h2.4v-3.9h2.9V326.2z"/>
			<path class="st12" d="M-432.6,324.3h2.9v8.3h0.2c0.7-1.7,2.4-2.7,4.6-2.7c3.2,0,5.4,2,5.4,5.6v9.8h-2.9v-9c0-2.4-1.2-3.7-3.2-3.7
				c-2.4,0-3.9,1.5-3.9,3.9v9h-3.2v-21.2L-432.6,324.3L-432.6,324.3z"/>
			<path class="st12" d="M-402,341.3c-0.7,2.7-3.2,4.4-6.6,4.4c-4.4,0-7.1-2.9-7.1-7.8s2.7-8.1,7.1-8.1c4.2,0,6.8,2.9,6.8,7.8v1
				h-10.6v0.2c0,2.7,1.7,4.4,4.2,4.4c1.7,0,3.2-0.7,3.7-2h2.5V341.3L-402,341.3z M-412.6,336.2h7.8c0-2.4-1.5-3.9-3.7-3.9
				C-411,332.3-412.4,334-412.6,336.2z"/>
		</g>
	</g>
</g>
<path id="XMLID_28_" class="st13" d="M51.5,351c-0.2-0.2-0.6-0.3-0.9,0c-0.2,0.2-0.3,0.6,0,0.9l3.6,3.7c0.1,0.1,0.3,0.2,0.4,0.2l0,0
	c0.2,0,0.4-0.1,0.5-0.3l7.3-10.1c0.2-0.3,0.1-0.7-0.1-0.9c-0.3-0.2-0.7-0.1-0.9,0.1l-6.8,9.5L51.5,351z"/>
<path id="XMLID_27_" class="st14" d="M81,350c-0.3-0.3-0.8-0.3-1.1,0c-0.3,0.3-0.3,0.8,0,1.1l4.3,4.5c0.1,0.1,0.3,0.2,0.5,0.2
	c0,0,0,0,0.1,0c0.2,0,0.4-0.1,0.6-0.3l8.7-12.2c0.2-0.3,0.2-0.8-0.2-1c-0.3-0.2-0.8-0.2-1,0.2L84.7,354L81,350z"/>
<path id="XMLID_26_" class="st13" d="M111.3,349c-0.3-0.4-0.9-0.4-1.2,0c-0.4,0.3-0.4,0.9,0,1.2l5.1,5.3c0.2,0.2,0.4,0.3,0.6,0.3
	c0,0,0,0,0.1,0c0.3,0,0.5-0.2,0.7-0.4l10.4-14.5c0.3-0.4,0.2-0.9-0.2-1.2c-0.4-0.3-0.9-0.2-1.2,0.2l-9.7,13.6L111.3,349z"/>
<path id="XMLID_21_" class="st15" d="M146.9,347c-0.4-0.5-1.2-0.5-1.6,0s-0.5,1.2,0,1.6l6.6,6.9c0.2,0.2,0.5,0.4,0.8,0.4h0.1
	c0.3,0,0.7-0.2,0.8-0.5l13.4-18.7c0.4-0.5,0.2-1.2-0.3-1.6s-1.2-0.2-1.6,0.3L152.5,353L146.9,347z"/>
<path id="XMLID_19_" class="st13" d="M184.5,344.7c-0.5-0.6-1.4-0.6-2-0.1s-0.6,1.4-0.1,2l8.2,8.7c0.3,0.3,0.6,0.4,1,0.4h0.1
	c0.4,0,0.8-0.2,1.1-0.6l16.8-23.5c0.5-0.6,0.3-1.5-0.3-2s-1.5-0.3-2,0.3l-15.8,22L184.5,344.7z"/>
<path id="XMLID_18_" class="st15" d="M230.5,341.9c-0.7-0.7-1.8-0.8-2.5-0.1s-0.8,1.8-0.1,2.5l10.4,10.9c0.3,0.4,0.8,0.6,1.3,0.6
	h0.1c0.5,0,1-0.3,1.3-0.7l21.1-29.5c0.6-0.8,0.4-1.9-0.4-2.5s-1.9-0.4-2.5,0.4l-19.9,27.7L230.5,341.9z"/>
<path id="XMLID_17_" class="st15" d="M286.1,335.4c-1-1.1-2.7-1.1-3.7-0.1c-1.1,1-1.1,2.7-0.1,3.7l15.1,15.9
	c0.5,0.5,1.2,0.8,1.9,0.8c0.1,0,0.1,0,0.2,0c0.8-0.1,1.5-0.5,2-1.1l30.9-43.2c0.8-1.2,0.6-2.8-0.6-3.7c-1.2-0.8-2.8-0.6-3.7,0.6
	L299,348.9L286.1,335.4z"/>
<path id="XMLID_16_" class="st15" d="M361.9,323.7c-1.6-1.7-4.2-1.7-5.9-0.2c-1.7,1.6-1.7,4.2-0.2,5.9l23.8,25.1
	c0.8,0.8,1.9,1.3,3,1.3c0.1,0,0.2,0,0.3,0c1.2-0.1,2.4-0.7,3.1-1.7l48.6-68c1.3-1.9,0.9-4.5-1-5.8s-4.5-0.9-5.8,1l-45.5,63.9
	L361.9,323.7z"/>
<g>
	<rect x="758.5" y="87.8" class="st0" width="31.1" height="31.1"/>
	<g>
		<path d="M774.1,113.9l-0.4-0.3c-0.5-0.3-11-7.9-11-14.7c0-3.6,2.5-5.3,4.8-5.8s5.2,0.2,6.6,2.2c1.3-2,4-2.7,6.2-2.2
			c2.4,0.4,5.2,2.2,5.2,6.1c0,6.8-10.6,14.2-11,14.5L774.1,113.9z M768.9,94.3c-0.4,0-0.8,0-1.2,0.1c-2.3,0.5-3.8,2.2-3.8,4.5
			c0,5.4,8.2,11.9,10.1,13.4c1.8-1.3,10.1-7.7,10.1-13.1c0-3-2.2-4.5-4.2-4.8c-2-0.4-4.5,0.4-5.3,2.5l-0.6,1.5l-0.7-1.5
			C772.9,95,770.8,94.3,768.9,94.3z"/>
	</g>
</g>
<g>
	<rect x="795.4" y="87.8" class="st0" width="31.1" height="31.1"/>
	<path d="M817.3,93.2c-2.2-0.4-4.8,0.3-6.2,2.2c-1.5-2-4.4-2.7-6.6-2.2c-2.3,0.5-4.8,2.2-4.8,5.8c0,6.8,10.6,14.4,11,14.7l0.4,0.3
		l0.4-0.3c0.5-0.3,11-7.7,11-14.5C822.5,95.5,819.7,93.7,817.3,93.2z"/>
</g>
<rect x="574.4" y="20.3" width="34.9" height="34.9"/>
<rect x="612.4" y="20.3" width="34.9" height="34.9"/>
<rect x="664.4" y="20.3" class="st16" width="34.9" height="34.9"/>
<rect x="702.4" y="20.3" class="st16" width="34.9" height="34.9"/>
<rect x="754.4" y="20.3" width="34.9" height="34.9"/>
<rect x="792.4" y="20.3" class="st16" width="34.9" height="34.9"/>
<rect x="844.4" y="20.3" class="st16" width="34.9" height="34.9"/>
<rect x="882.4" y="20.3" width="34.9" height="34.9"/>
<rect x="931" y="20.3" width="34.9" height="34.9"/>
<g>
	<g>
		<path d="M692,114.9h-20.6c-1.7,0-3.3-1.5-3.3-3.3v-0.1l2.4-12.8c0.4-2,1.7-3.1,3.2-3.1h15.7c1.7,0,2.9,1.3,3.2,3.1l2.4,13
			C695.3,113.6,693.8,114.9,692,114.9z M669.7,111.7c0,0.9,0.8,1.7,1.7,1.7H692c1,0,1.7-0.8,1.7-1.7L691.3,99
			c-0.2-0.9-0.7-1.8-1.7-1.8h-15.7c-1.2,0-1.5,1.2-1.7,1.8L669.7,111.7z"/>
	</g>
	<g>
		<path d="M676,99.8c-0.4,0-0.8-0.3-0.8-0.7c0-0.2-0.3-5.8,2.4-8.7c1-1,2.4-1.7,4-1.7c1.7,0,3,0.6,4.1,1.7c2.7,2.9,2.3,8.4,2.3,8.5
			c0,0.4-0.4,0.8-0.8,0.7c-0.4,0-0.8-0.4-0.7-0.8c0-0.1,0.3-5-2-7.4c-0.8-0.9-1.7-1.3-3-1.3c-1.2,0-2.2,0.4-2.8,1.2
			c-2.2,2.3-2,7.5-2,7.5C676.8,99.4,676.5,99.8,676,99.8L676,99.8z"/>
	</g>
</g>
<g>
	<g>
		<path d="M732,114.9h-20.6c-1.7,0-3.3-1.5-3.3-3.3v-0.1l2.4-12.8c0.4-2,1.7-3.1,3.2-3.1h15.7c1.7,0,2.9,1.3,3.2,3.1l2.4,13
			C735.3,113.6,733.8,114.9,732,114.9z"/>
		<path d="M709.7,111.7c0,0.9,0.8,1.7,1.7,1.7H732c1,0,1.7-0.8,1.7-1.7L731.3,99c-0.2-0.9-0.7-1.8-1.7-1.8h-15.7
			c-1.2,0-1.5,1.2-1.7,1.8L709.7,111.7z"/>
	</g>
	<g>
		<path d="M716,99.8c-0.4,0-0.8-0.3-0.8-0.7c0-0.2-0.3-5.8,2.4-8.7c1-1,2.4-1.7,4-1.7c1.7,0,3,0.6,4.1,1.7c2.7,2.9,2.3,8.4,2.3,8.5
			c0,0.4-0.4,0.8-0.8,0.7c-0.4,0-0.8-0.4-0.7-0.8c0-0.1,0.3-5-2-7.4c-0.8-0.9-1.7-1.3-3-1.3c-1.2,0-2.2,0.4-2.8,1.2
			c-2.2,2.3-2,7.5-2,7.5C716.8,99.4,716.5,99.8,716,99.8L716,99.8z"/>
	</g>
</g>
<g>
	<g>
		<path d="M868.5,114.2c-0.2,0-0.4-0.1-0.5-0.2l-20.4-20.4c-0.2-0.2-0.2-0.7,0-1.1s0.7-0.2,1.1,0l20.4,20.4c0.2,0.2,0.2,0.7,0,1.1
			C869,114.1,868.9,114.2,868.5,114.2z"/>
	</g>
	<g>
		<path d="M848.2,114.2c-0.2,0-0.4-0.1-0.5-0.2c-0.2-0.2-0.2-0.7,0-1.1l20.4-20.4c0.2-0.2,0.7-0.2,1.1,0c0.4,0.2,0.2,0.7,0,1.1
			L848.8,114C848.6,114.1,848.5,114.2,848.2,114.2z"/>
	</g>
</g>
<g>
	<path d="M404.3,178.7h-12.8c-2.3,0-4.1,1.8-4.1,4.1v2.9v1.2v21v1.2v2.9c0,2.3,1.8,4.1,4.1,4.1h12.8c2.3,0,4.1-1.8,4.1-4.1v-2.9
		v-1.2v-21v-1.2v-2.9C408.4,180.5,406.5,178.7,404.3,178.7z M407.2,212c0,1.6-1.3,2.9-2.9,2.9h-12.8c-1.6,0-2.9-1.3-2.9-2.9v-2.9
		h18.7V212z M407.2,207.9h-18.7v-21h18.7V207.9z M388.5,185.7v-2.9c0-1.6,1.3-2.9,2.9-2.9h12.8c1.6,0,2.9,1.3,2.9,2.9v2.9H388.5z"/>
	<path d="M400.8,182.2h-5.8c-0.3,0-0.6,0.3-0.6,0.6c0,0.3,0.3,0.6,0.6,0.6h5.8c0.3,0,0.6-0.3,0.6-0.6
		C401.3,182.5,401.1,182.2,400.8,182.2z"/>
	<path d="M397.8,214c1.1,0,2-0.9,2-2s-0.9-2-2-2c-1.1,0-2,0.9-2,2S396.7,214,397.8,214z M397.8,210.5c0.8,0,1.5,0.7,1.5,1.5
		s-0.7,1.5-1.5,1.5s-1.5-0.7-1.5-1.5S397,210.5,397.8,210.5z"/>
</g>
<g>
	<path d="M451.1,163.7h-18c-3.2,0-5.7,2.6-5.7,5.7v4.1v1.6v29.5v1.6v4.1c0,3.2,2.6,5.7,5.7,5.7h18c3.2,0,5.7-2.6,5.7-5.7v-4.1v-1.6
		v-29.5v-1.6v-4.1C456.8,166.3,454.2,163.7,451.1,163.7z M455.2,210.4c0,2.3-1.8,4.1-4.1,4.1h-18c-2.3,0-4.1-1.8-4.1-4.1v-4.1h26.2
		V210.4z M455.2,204.6H429v-29.5h26.2V204.6z M429,173.5v-4.1c0-2.3,1.8-4.1,4.1-4.1h18c2.3,0,4.1,1.8,4.1,4.1v4.1H429z"/>
	<path d="M446.2,168.6H438c-0.5,0-0.8,0.4-0.8,0.8c0,0.5,0.4,0.8,0.8,0.8h8.2c0.5,0,0.8-0.4,0.8-0.8
		C447,169,446.6,168.6,446.2,168.6z"/>
	<path d="M442.1,213.2c1.6,0,2.9-1.3,2.9-2.9s-1.3-2.9-2.9-2.9c-1.6,0-2.9,1.3-2.9,2.9S440.5,213.2,442.1,213.2z M442.1,208.3
		c1.1,0,2,0.9,2,2s-0.9,2-2,2s-2-0.9-2-2S440.9,208.3,442.1,208.3z"/>
</g>
<g>
	<path class="st17" d="M596.1,29.2l0.4,0.4l-8,8c-0.1,0.1-0.1,0.2,0,0.3l8,8l-0.4,0.4c-0.1,0.1-0.2,0.1-0.3,0l-8.4-8.3
		c-0.1-0.1-0.1-0.2,0-0.3l8.4-8.3C595.8,29.1,596,29.1,596.1,29.2L596.1,29.2z"/>
	<path class="st17" d="M625.7,29.2c0.1-0.1,0.3-0.1,0.3,0.2l8.4,8.3c0.1,0.1,0.1,0.2,0,0.3l-8.4,8.3c-0.1,0.1-0.2,0.1-0.3,0
		l-0.4-0.4l8-8c0.1-0.1,0.1-0.2,0-0.3l-8-8L625.7,29.2L625.7,29.2z"/>
</g>
<path class="st17" d="M686,29.2l0.4,0.4l-8,8c-0.1,0.1-0.1,0.2,0,0.3l8,8l-0.4,0.4c-0.1,0.1-0.2,0.1-0.3,0l-8.4-8.3
	c-0.1-0.1-0.1-0.2,0-0.3l8.4-8.3C685.7,29.1,685.9,29.1,686,29.2L686,29.2z"/>
<path class="st17" d="M776,29.2l0.4,0.4l-8,8c-0.1,0.1-0.1,0.2,0,0.3l8,8l-0.4,0.4c-0.1,0.1-0.2,0.1-0.3,0l-8.4-8.3
	c-0.1-0.1-0.1-0.2,0-0.3l8.4-8.3C775.7,29.1,775.9,29.1,776,29.2L776,29.2z"/>
<path class="st17" d="M805.7,29.2c0.1-0.1,0.3-0.1,0.3,0.2l8.4,8.3c0.1,0.1,0.1,0.2,0,0.3l-8.4,8.3c-0.1,0.1-0.2,0.1-0.3,0l-0.4-0.4
	l8-8c0.1-0.1,0.1-0.2,0-0.3l-8-8L805.7,29.2L805.7,29.2z"/>
<path class="st17" d="M715.7,29.2c0.1-0.1,0.3-0.1,0.3,0.2l8.4,8.3c0.1,0.1,0.1,0.2,0,0.3l-8.4,8.3c-0.1,0.1-0.2,0.1-0.3,0l-0.4-0.4
	l8-8c0.1-0.1,0.1-0.2,0-0.3l-8-8L715.7,29.2L715.7,29.2z"/>
<path class="st17" d="M866,29.2l0.4,0.4l-8,8c-0.1,0.1-0.1,0.2,0,0.3l8,8l-0.4,0.4c-0.1,0.1-0.2,0.1-0.3,0l-8.4-8.3
	c-0.1-0.1-0.1-0.2,0-0.3l8.4-8.3C865.7,29.1,865.9,29.1,866,29.2L866,29.2z"/>
<path class="st17" d="M895.7,29.2c0.1-0.1,0.3-0.1,0.3,0.2l8.4,8.3c0.1,0.1,0.1,0.2,0,0.3l-8.4,8.3c-0.1,0.1-0.2,0.1-0.3,0l-0.4-0.4
	l8-8c0.1-0.1,0.1-0.2,0-0.3l-8-8L895.7,29.2L895.7,29.2z"/>
<path class="st12" d="M956.1,40.6l-7.5-7.5c-0.1-0.1-0.2-0.1-0.3,0l-7.5,7.5c-0.1,0.1-0.1,0.2,0,0.3l1.6,1.6l5.8-5.8
	c0.1-0.1,0.2-0.1,0.3,0l5.8,5.8l1.7-1.6C956.2,40.8,956.2,40.7,956.1,40.6L956.1,40.6z"/>
<text transform="matrix(1 0 0 1 925.9869 65.4)" class="st18 st19">Go To Top</text>
<g>
	<path class="st12" d="M598.1,104.3h-5.7v5.7h-1.7v-5.7h-5.7v-1.7h5.7V97h1.7v5.7h5.7V104.3z"/>
</g>
<circle cx="621.5" cy="103.5" r="12.1"/>
<rect x="614.9" y="102.7" class="st12" width="13.1" height="1.7"/>
<g>
	<path d="M598.1,146.3h-5.7v5.7h-1.7v-5.7h-5.7v-1.7h5.7V139h1.7v5.7h5.7V146.3z"/>
</g>
<rect x="614.9" y="144.7" width="13.1" height="1.7"/>
<g>
	<path d="M687.5,146.8l-1.1,0.8c-0.1-0.1-0.4-0.5-1.1-1.2c-0.7-0.7-1.6-1.7-2.7-2.9h0c-1,1-1.9,1.9-2.7,2.7
		c-0.8,0.8-1.2,1.3-1.3,1.3l-1-0.7c0,0,0.4-0.4,1-1c0.6-0.6,1.7-1.7,3.1-3.1v0c-0.7-0.7-1.5-1.6-2.4-2.5c-0.9-0.9-1.4-1.5-1.5-1.5
		l1.1-0.7c0.1,0.1,0.5,0.5,1.2,1.2c0.7,0.7,1.5,1.6,2.5,2.6h0c0.8-0.8,1.6-1.7,2.4-2.5c0.8-0.8,1.2-1.3,1.3-1.3l1,0.6
		c-0.1,0.1-0.6,0.6-1.6,1.6c-1,1-1.8,1.8-2.4,2.4v0c1,1,2,1.9,2.8,2.8C687,146.2,687.5,146.7,687.5,146.8z"/>
</g>
<g>
	<rect x="708.1" y="135.1" class="st20" width="10.3" height="10.3"/>
	<rect x="718.1" y="135.1" class="st21" width="10.3" height="10.3"/>
	<rect x="728.1" y="135.1" class="st22" width="10.3" height="10.3"/>
	<rect x="708.1" y="145.1" class="st23" width="10.3" height="10.3"/>
	<rect x="718.1" y="145.1" class="st24" width="10.3" height="10.3"/>
	<rect x="728.1" y="145.1" class="st25" width="10.3" height="10.3"/>
	<rect x="708.1" y="155.1" class="st26" width="10.3" height="10.3"/>
	<rect x="718.1" y="155.1" class="st20" width="10.3" height="10.3"/>
	<rect x="728.1" y="155.1" class="st21" width="10.3" height="10.3"/>
</g>
<g>
	<rect x="758.8" y="136.2" class="st20" width="10.3" height="10.3"/>
	<rect x="768.8" y="136.2" class="st21" width="10.3" height="10.3"/>
	<rect x="778.8" y="136.2" class="st22" width="10.3" height="10.3"/>
	<rect x="758.8" y="146.2" class="st23" width="10.3" height="10.3"/>
	<rect x="768.8" y="146.2" class="st24" width="10.3" height="10.3"/>
	<rect x="778.8" y="146.2" class="st25" width="10.3" height="10.3"/>
</g>
<g>
	<rect x="814.4" y="136.2" class="st20" width="10.3" height="10.3"/>
	<rect x="824.4" y="136.2" class="st21" width="10.3" height="10.3"/>
	<rect x="834.4" y="136.2" class="st22" width="10.3" height="10.3"/>
</g>
</svg>
