<svg width="19" height="19" viewBox="0 0 19 19" fill="none" xmlns="http://www.w3.org/2000/svg">
<g clip-path="url(#clip0)">
<path d="M17.4653 2.69872C16.4704 1.70381 15.1533 1.16003 13.7475 1.16003C12.3417 1.16003 11.0206 1.70784 10.0257 2.70275L9.50604 3.22236L8.97838 2.69469C7.98347 1.69978 6.65826 1.14795 5.2525 1.14795C3.85077 1.14795 2.52959 1.69575 1.53871 2.68664C0.543799 3.68155 -0.00400592 5.00272 2.20561e-05 6.40849C2.20561e-05 7.81425 0.551855 9.1314 1.54676 10.1263L9.1113 17.6908C9.21603 17.7956 9.35701 17.852 9.49396 17.852C9.63091 17.852 9.77189 17.7996 9.87662 17.6949L17.4573 10.1424C18.4522 9.14751 19 7.82633 19 6.42057C19.004 5.01481 18.4602 3.69363 17.4653 2.69872ZM16.6919 9.37308L9.49396 16.5429L2.31208 9.36099C1.5226 8.57151 1.08758 7.52424 1.08758 6.40849C1.08758 5.29274 1.51857 4.24546 2.30805 3.46001C3.09351 2.67455 4.14078 2.23953 5.2525 2.23953C6.36825 2.23953 7.41955 2.67455 8.20903 3.46404L9.11936 4.37436C9.33284 4.58784 9.67522 4.58784 9.8887 4.37436L10.791 3.47209C11.5805 2.68261 12.6318 2.24759 13.7435 2.24759C14.8552 2.24759 15.9025 2.68261 16.6919 3.46806C17.4814 4.25755 17.9124 5.30482 17.9124 6.42057C17.9165 7.53632 17.4814 8.58359 16.6919 9.37308Z" fill="#000000"/>
</g>
<defs>
<clipPath id="clip0">
<rect width="19" height="19" fill="black"/>
</clipPath>
</defs>
</svg>
